<svg width="383" height="287" viewBox="0 0 383 287" fill="none" xmlns="http://www.w3.org/2000/svg">
<path d="M363.604 137.404C305.451 94.7556 151.654 33.6847 1.69117 130.59" stroke="#344054" stroke-width="0.854398" stroke-dasharray="12.82 12.82"/>
<path d="M3.73155 229.39L11.4133 222.053L13.9264 211.732L21.2634 219.413L31.5844 221.927L23.9027 229.264L21.3896 239.585L14.0526 231.903L3.73155 229.39Z" fill="url(#paint0_linear_527_6170)"/>
<path d="M329.139 275.534C329.593 275.924 330.083 276.276 330.603 276.589C331.12 276.898 331.666 277.169 332.245 277.399C332.838 277.637 333.464 277.831 334.12 277.98C334.828 278.142 335.572 278.251 336.347 278.308C337.253 278.372 338.203 278.364 339.194 278.277C340.713 278.146 342.33 277.831 344.026 277.324C344.168 277.282 344.309 277.239 344.45 277.194C346.749 276.468 349.046 275.436 351.289 274.156C353.021 273.167 354.719 272.03 356.362 270.772C357.419 269.961 358.452 269.102 359.456 268.197C360.314 267.425 361.15 266.62 361.961 265.789C362.705 265.026 363.429 264.238 364.126 263.432C364.801 262.653 365.451 261.856 366.076 261.044C366.7 260.234 367.299 259.406 367.87 258.568C368.464 257.695 369.027 256.81 369.557 255.913C370.132 254.94 370.669 253.957 371.161 252.963C371.764 251.75 372.303 250.523 372.768 249.294C373.373 247.698 373.857 246.096 374.204 244.504C375.721 237.552 374.34 232.131 370.882 229.002L377.376 234.88C380.834 238.01 382.215 243.43 380.698 250.382C380.351 251.974 379.867 253.576 379.262 255.172C378.796 256.403 378.258 257.627 377.654 258.841C377.163 259.834 376.626 260.818 376.051 261.79C375.521 262.687 374.958 263.573 374.362 264.445C373.791 265.284 373.192 266.111 372.568 266.922C371.943 267.734 371.291 268.531 370.618 269.309C369.919 270.116 369.197 270.904 368.453 271.667C367.642 272.498 366.806 273.302 365.948 274.075C364.944 274.98 363.911 275.841 362.854 276.649C361.211 277.908 359.511 279.046 357.781 280.034C355.538 281.313 353.241 282.346 350.942 283.072C350.801 283.117 350.66 283.16 350.518 283.202C348.82 283.71 347.205 284.023 345.686 284.155C344.695 284.242 343.745 284.251 342.839 284.185C342.063 284.131 341.32 284.019 340.612 283.857C339.956 283.708 339.33 283.514 338.737 283.277C338.158 283.047 337.611 282.776 337.095 282.467C336.575 282.154 336.085 281.801 335.631 281.411C335.561 281.351 335.493 281.291 335.426 281.23L328.932 275.353C328.999 275.415 329.067 275.475 329.137 275.534H329.139Z" fill="url(#paint1_linear_527_6170)"/>
<path d="M325.611 259.849C322.596 273.666 331.031 281.43 344.45 277.194C357.871 272.956 371.194 258.319 374.21 244.502C377.225 230.685 368.79 222.921 355.371 227.159C341.949 231.396 328.626 246.032 325.611 259.849Z" fill="url(#paint2_linear_527_6170)"/>
<path d="M362.266 228.45C365.669 228.45 368.387 229.592 370.124 231.75C372.337 234.495 372.936 238.839 371.815 243.978C370.447 250.247 366.755 256.928 361.418 262.789C356.083 268.647 349.795 272.933 343.71 274.855C341.516 275.548 339.445 275.899 337.551 275.899C334.15 275.899 331.432 274.757 329.693 272.599C327.481 269.853 326.881 265.51 328.003 260.371C329.371 254.101 333.063 247.421 338.399 241.56C343.734 235.699 350.023 231.414 356.106 229.494C358.299 228.8 360.37 228.45 362.264 228.45H362.266ZM362.264 226C360.163 226 357.851 226.373 355.367 227.157C341.95 231.395 328.627 246.032 325.611 259.849C323.154 271.108 328.302 278.35 337.553 278.35C339.654 278.35 341.967 277.977 344.45 277.193C357.872 272.955 371.195 258.319 374.21 244.502C376.667 233.242 371.519 226 362.266 226H362.264Z" fill="url(#paint3_linear_527_6170)"/>
<path d="M374.016 278.234C378.745 273.505 378.745 265.838 374.016 261.109C369.287 256.38 361.62 256.38 356.891 261.109C352.162 265.838 352.162 273.505 356.891 278.234C361.62 282.963 369.287 282.963 374.016 278.234Z" fill="url(#paint4_linear_527_6170)"/>
<g filter="url(#filter0_d_527_6170)">
<path d="M190.776 257C255.101 257 307.247 204.854 307.247 140.529C307.247 76.2039 255.101 24.0581 190.776 24.0581C126.45 24.0581 74.3047 76.2039 74.3047 140.529C74.3047 204.854 126.45 257 190.776 257Z" fill="url(#paint5_linear_527_6170)"/>
</g>
<path d="M183.471 252.942C247.796 252.942 299.942 200.796 299.942 136.471C299.942 72.1458 247.796 20 183.471 20C119.146 20 67 72.1458 67 136.471C67 200.796 119.146 252.942 183.471 252.942Z" fill="url(#paint6_linear_527_6170)"/>
<path d="M230.27 175.002L230.476 145.347C230.476 141.17 231.024 138.664 232.12 137.828C233.216 136.854 236.368 136.366 241.575 136.366C246.782 136.366 249.659 136.645 250.207 137.202C250.892 137.759 251.235 148.967 251.235 170.826C251.235 192.545 250.892 203.684 250.207 204.24C249.522 204.658 247.193 204.867 243.219 204.867C239.245 204.867 235.34 203.823 231.503 201.734C226.982 204.38 220.816 206.816 213.005 209.044C205.332 211.132 197.796 212.177 190.396 212.177C176.283 212.177 163.334 209.531 151.55 204.24C139.903 198.95 130.311 190.735 122.775 179.597C115.239 168.459 111.47 154.953 111.47 139.081C111.47 123.07 115.444 108.938 123.392 96.6862C131.339 84.2948 141.616 75.2449 154.222 69.5366C166.828 63.6889 180.805 60.7651 196.151 60.7651C202.865 60.7651 210.402 61.6701 218.76 63.4801C227.256 65.1508 231.846 67.1697 232.531 69.5366C232.531 69.9542 232.531 70.8592 232.531 72.2515C232.531 73.6438 232.189 75.3842 231.503 77.4726C230.818 79.4218 229.859 80.3964 228.626 80.3964C227.393 80.3964 225.817 80.1179 223.899 79.561L220.816 78.5168C213.279 76.4284 205.263 75.3842 196.768 75.3842C188.272 75.3842 181.627 76.2195 176.831 77.8903C172.172 79.4218 167.787 81.4406 163.677 83.9467C159.566 86.4529 155.113 90.0032 150.317 94.5978C145.658 99.1923 141.821 105.249 138.807 112.767C135.929 120.285 134.49 128.709 134.49 138.037C134.49 155.023 140.52 169.364 152.578 181.059C164.773 192.754 179.777 198.602 197.59 198.602C205.4 198.602 212.731 197.488 219.582 195.26C226.571 193.033 230.065 190.805 230.065 188.577L230.27 175.002Z" fill="white"/>
<path d="M256.127 135.433C258.541 136.989 259.254 138.03 259.456 138.412C259.254 138.795 258.541 139.836 256.127 141.392C252.688 143.609 247.232 145.88 239.842 147.895C225.167 151.898 204.485 154.463 181.353 154.463C158.221 154.463 137.539 151.898 122.864 147.895C115.475 145.88 110.018 143.609 106.579 141.392C104.166 139.836 103.452 138.795 103.251 138.412C103.452 138.03 104.166 136.989 106.579 135.433C110.018 133.216 115.475 130.945 122.864 128.93C137.539 124.927 158.221 122.362 181.353 122.362C204.485 122.362 225.167 124.927 239.842 128.93C247.232 130.945 252.688 133.216 256.127 135.433Z" stroke="white" stroke-width="14.4874"/>
<path d="M1.11328 134.669C62.7884 164.56 221.709 208.363 363.992 144.454" stroke="#344054" stroke-width="0.854398" stroke-dasharray="12.82 12.82"/>
<path d="M88 30C88 46.5685 88.0685 67 71.5 67C54.9315 67 28 46.5685 28 30C28 13.4315 41.4315 0 58 0C74.5685 0 88 13.4315 88 30Z" fill="url(#paint7_linear_527_6170)"/>
<g clip-path="url(#clip0_527_6170)">
<path d="M77.9065 27.086V37.9788H75.8126V33.421H70.9637V37.9788H68.8676V27.086H70.9637V31.6945H75.8126V27.086H77.9065ZM54.5441 27.086H53.6489L49.0991 37.9788H51.297L54.4942 30.1113H54.6005L57.7652 37.9788H59.9934L55.4393 27.086H54.5441ZM59.6683 35.5841L59.69 35.6393C59.8395 36.0362 60.7109 38.1199 63.5743 38.2324C68.1675 38.411 68.0851 35.3967 68.0851 34.7771C68.0851 34.3692 67.8618 33.1322 66.5244 32.4133C64.8034 31.4872 61.8728 31.5975 61.8728 29.8136C61.8728 29.2668 62.3518 28.4994 63.7716 28.4707C65.1458 28.4443 65.8676 29.3572 65.9652 29.8687L67.5367 29.3991C67.2571 28.775 66.661 27.0287 63.7 27.0287C63.1191 27.0287 62.5902 27.0948 62.1415 27.2492C60.3012 27.8842 59.9674 29.3307 59.9696 30.0517C59.9956 34.2236 66.0844 33.141 66.015 35.2953C65.9912 36.0847 65.2304 36.7087 63.7022 36.6425C62.1177 36.5764 61.578 35.5863 61.3222 35.0086L59.6705 35.5819L59.6683 35.5841ZM44.4864 28.6604C45.8607 28.6295 46.68 29.3572 46.8296 29.8401L48.5095 29.3726C48.2277 28.7464 47.2653 27.1213 44.545 27C39.3904 27 39.0002 31.9128 39.0002 32.4111C39.0002 37.5907 42.7849 38.1662 44.2545 38.2346C45.5659 38.2985 47.5883 38.1596 48.5745 37.9567V31.6945H43.2574V33.4254H46.5782C46.5955 33.4254 46.6085 33.4387 46.6085 33.4563V36.4904C46.6085 36.508 46.5955 36.5257 46.5782 36.5323C46.5782 36.5323 45.7545 36.6977 44.5688 36.658C44.1028 36.6447 41.1852 36.5257 41.1852 32.636C41.1852 30.1355 42.4099 28.6824 44.4821 28.6604" fill="white"/>
</g>
<defs>
<filter id="filter0_d_527_6170" x="58.0718" y="11.0718" width="265.408" height="265.408" filterUnits="userSpaceOnUse" color-interpolation-filters="sRGB">
<feFlood flood-opacity="0" result="BackgroundImageFix"/>
<feColorMatrix in="SourceAlpha" type="matrix" values="0 0 0 0 0 0 0 0 0 0 0 0 0 0 0 0 0 0 127 0" result="hardAlpha"/>
<feOffset dy="3.24657"/>
<feGaussianBlur stdDeviation="8.11644"/>
<feComposite in2="hardAlpha" operator="out"/>
<feColorMatrix type="matrix" values="0 0 0 0 0.429167 0 0 0 0 0.541667 0 0 0 0 1 0 0 0 1 0"/>
<feBlend mode="normal" in2="BackgroundImageFix" result="effect1_dropShadow_527_6170"/>
<feBlend mode="normal" in="SourceGraphic" in2="effect1_dropShadow_527_6170" result="shape"/>
</filter>
<linearGradient id="paint0_linear_527_6170" x1="5.83057" y1="237.223" x2="29.2522" y2="213.223" gradientUnits="userSpaceOnUse">
<stop stop-color="#0033FF"/>
<stop offset="1" stop-color="#009FFF"/>
</linearGradient>
<linearGradient id="paint1_linear_527_6170" x1="380.825" y1="238.012" x2="338.725" y2="284.264" gradientUnits="userSpaceOnUse">
<stop stop-color="#B27900"/>
<stop offset="0.06" stop-color="#C89112"/>
<stop offset="0.14" stop-color="#DFAA24"/>
<stop offset="0.22" stop-color="#EFBC31"/>
<stop offset="0.3" stop-color="#F8C739"/>
<stop offset="0.4" stop-color="#FCCB3C"/>
<stop offset="0.54" stop-color="#F5C337"/>
<stop offset="0.75" stop-color="#E2AF2A"/>
<stop offset="1" stop-color="#C48F16"/>
</linearGradient>
<linearGradient id="paint2_linear_527_6170" x1="366.971" y1="260.967" x2="332.761" y2="243.302" gradientUnits="userSpaceOnUse">
<stop stop-color="#FFDF82"/>
<stop offset="1" stop-color="#EFB40A"/>
</linearGradient>
<linearGradient id="paint3_linear_527_6170" x1="375.397" y1="250.979" x2="324.424" y2="253.372" gradientUnits="userSpaceOnUse">
<stop stop-color="#FFE487"/>
<stop offset="1" stop-color="#F8CD4F"/>
</linearGradient>
<linearGradient id="paint4_linear_527_6170" x1="352.074" y1="265.925" x2="379.368" y2="272.882" gradientUnits="userSpaceOnUse">
<stop stop-color="#0033FF"/>
<stop offset="1" stop-color="#009FFF"/>
</linearGradient>
<linearGradient id="paint5_linear_527_6170" x1="125.261" y1="24.0581" x2="263.57" y2="257" gradientUnits="userSpaceOnUse">
<stop stop-color="#001B89"/>
</linearGradient>
<linearGradient id="paint6_linear_527_6170" x1="117.956" y1="20" x2="256.265" y2="252.942" gradientUnits="userSpaceOnUse">
<stop stop-color="#0033FF"/>
<stop offset="1" stop-color="#009FFF"/>
</linearGradient>
<linearGradient id="paint7_linear_527_6170" x1="58" y1="0" x2="58" y2="67" gradientUnits="userSpaceOnUse">
<stop stop-color="#E72E6B"/>
<stop offset="1" stop-color="#F3973D"/>
</linearGradient>
<clipPath id="clip0_527_6170">
<rect width="38.9062" height="11.25" fill="white" transform="translate(39 27)"/>
</clipPath>
</defs>
</svg>
