<svg width="158" height="79" viewBox="0 0 158 79" fill="none" xmlns="http://www.w3.org/2000/svg">
<rect width="158" height="79" rx="24" fill="#F9FAFB"/>
<rect x="29" y="18" width="100" height="42" rx="21" fill="url(#paint0_linear_1087_7519)"/>
<path d="M52.975 37.115H49.57V38.78H51.25V42.635H52.975V37.115ZM52.975 41.93H51.415C50.755 42.485 50.02 43.025 49.39 43.43L50.245 45.215C50.995 44.57 51.625 44 52.225 43.415C53.125 44.57 54.34 45.005 56.14 45.08C57.97 45.17 61.165 45.14 63.04 45.05C63.115 44.525 63.4 43.7 63.595 43.295C61.51 43.46 57.955 43.505 56.155 43.415C54.61 43.355 53.545 42.92 52.975 41.93ZM49.615 32.66C50.47 33.395 51.475 34.43 51.88 35.165L53.365 34.025C52.9 33.32 51.85 32.315 50.995 31.655L49.615 32.66ZM53.635 32.345V33.8H63.085V32.345H53.635ZM53.44 40.205V41.675H63.265V40.205H53.44ZM57.385 31.265V43.07H59.14V31.265H57.385ZM55.87 37.55H60.7V38.3H55.87V37.55ZM55.87 35.66H60.7V36.395H55.87V35.66ZM54.22 34.415V39.545H62.425V34.415H54.22ZM72.91 31.25V33.29H74.725V31.25H72.91ZM69.55 32.69V34.205H78.1V32.69H69.55ZM69.085 36.11V37.64H78.475V36.11H69.085ZM70.915 34.25C71.17 34.955 71.365 35.885 71.38 36.455L73.015 36.095C72.97 35.525 72.73 34.64 72.46 33.95L70.915 34.25ZM75.145 33.965C75.01 34.625 74.74 35.57 74.5 36.2L76.015 36.41C76.285 35.825 76.585 35 76.885 34.145L75.145 33.965ZM69.205 38.705V40.22H78.445V38.705H69.205ZM72.31 37.265C71.665 38.93 70.66 41.09 69.91 42.425L71.455 42.92C72.25 41.51 73.3 39.395 74.11 37.61L72.31 37.265ZM70.975 42.44C73.105 43.13 75.835 44.375 77.14 45.35L78.295 44.015C76.87 43.025 74.11 41.87 72.025 41.255L70.975 42.44ZM75.145 39.815C74.515 42.605 72.85 43.595 68.74 43.925C68.995 44.27 69.265 44.885 69.4 45.38C74.095 44.765 76.09 43.535 76.87 39.995L75.145 39.815ZM64.3 38.93L64.675 40.685C66.055 40.31 67.795 39.83 69.43 39.35L69.22 37.76C67.435 38.21 65.56 38.675 64.3 38.93ZM64.6 34.115V35.765H69.235V34.115H64.6ZM66.37 31.28V43.325C66.37 43.535 66.295 43.61 66.1 43.61C65.905 43.61 65.29 43.61 64.705 43.58C64.93 44.075 65.155 44.855 65.215 45.335C66.235 45.335 66.955 45.275 67.45 44.975C67.945 44.69 68.095 44.21 68.095 43.325V31.28H66.37ZM85.66 33.29L85.795 34.715L93.205 33.95L93.085 32.54L85.66 33.29ZM85.555 39.95L85.675 41.405L93.415 40.61L93.28 39.2L85.555 39.95ZM87.01 31.265C87.34 35.075 89.62 38.24 91.735 38.24C92.755 38.255 93.235 37.925 93.49 36.455C93.1 36.32 92.62 36.065 92.305 35.765C92.23 36.485 92.155 36.725 91.84 36.725C90.7 36.725 88.855 34.13 88.615 31.265H87.01ZM87.055 37.955C87.34 41.99 89.425 45.335 91.75 45.335C92.83 45.335 93.325 44.975 93.58 43.37C93.175 43.235 92.68 42.965 92.35 42.65C92.275 43.49 92.17 43.775 91.855 43.775C90.595 43.805 88.885 41.045 88.69 37.955H87.055ZM91.15 34.175C89.98 35.48 87.565 36.365 85.195 36.83C85.51 37.145 86.005 37.805 86.215 38.135C88.615 37.49 91.21 36.395 92.635 34.73L91.15 34.175ZM91.27 40.82C90.055 42.35 87.475 43.355 84.88 43.865C85.18 44.195 85.675 44.93 85.87 45.29C88.57 44.585 91.33 43.34 92.845 41.39L91.27 40.82ZM89.71 32.135C90.325 32.345 91.12 32.705 91.51 32.99L92.335 32.06C91.915 31.775 91.105 31.46 90.505 31.28L89.71 32.135ZM89.425 38.69C90.04 38.945 90.82 39.35 91.21 39.665L92.215 38.75C91.78 38.45 90.985 38.075 90.37 37.865L89.425 38.69ZM80.5 35V36.5H84.835V35H80.5ZM79.78 37.595V39.125H85.255V37.595H79.78ZM79.93 39.965C80.155 40.805 80.365 41.885 80.395 42.605L81.61 42.29C81.535 41.57 81.325 40.52 81.07 39.68L79.93 39.965ZM79.615 43.4L79.96 45.035C81.535 44.72 83.605 44.3 85.54 43.88L85.42 42.395C83.32 42.785 81.085 43.19 79.615 43.4ZM84.085 39.56C83.98 40.28 83.755 41.33 83.56 42.005L84.64 42.305C84.865 41.675 85.105 40.73 85.375 39.875L84.085 39.56ZM81.835 35.6V43.955L83.38 43.685V35.6H81.835ZM81.76 31.265C81.295 32.435 80.41 33.845 79.15 34.925C79.48 35.165 79.99 35.735 80.23 36.095C81.715 34.745 82.63 33.2 83.215 32.06V31.595H82.705V31.265H81.76ZM81.985 31.265V32.54H82.3C83.11 33.215 84.13 34.475 84.61 35.24L85.765 33.86C85.225 33.095 84.115 32.015 83.245 31.265H81.985ZM97.96 31.19C97.18 33.215 95.815 35.21 94.285 36.41C94.75 36.695 95.53 37.355 95.875 37.715C97.405 36.29 98.92 34.04 99.865 31.73L97.96 31.19ZM98.26 32.93L97.405 34.625H106.24V32.93H98.26ZM105.7 32.93V33.275C105.595 37.775 105.46 39.38 105.175 39.755C105.055 39.92 104.905 39.98 104.68 39.98C104.41 39.98 103.9 39.98 103.33 39.905C103.6 40.385 103.795 41.105 103.81 41.63C104.56 41.63 105.235 41.645 105.655 41.555C106.135 41.48 106.48 41.33 106.795 40.88C107.23 40.295 107.365 38.48 107.5 33.695C107.515 33.455 107.515 32.93 107.515 32.93H105.7ZM97.435 39.155V40.745H103.315V35.765H97.15V37.34H101.545V39.155H97.435ZM96.625 39.155V42.845C96.625 44.735 97.435 45.23 100.24 45.23C100.87 45.23 104.41 45.23 105.055 45.23C107.455 45.23 108.055 44.675 108.355 42.38C107.845 42.29 107.065 42.005 106.63 41.75C106.48 43.295 106.27 43.55 104.995 43.55C104.08 43.55 100.975 43.55 100.27 43.55C98.68 43.55 98.41 43.445 98.41 42.815V39.155H96.625Z" fill="#F9FAFB"/>
<defs>
<linearGradient id="paint0_linear_1087_7519" x1="33.0179" y1="37.6304" x2="129.001" y2="38.9401" gradientUnits="userSpaceOnUse">
<stop stop-color="#E72E6B"/>
<stop offset="1" stop-color="#F3973D"/>
</linearGradient>
</defs>
</svg>
