<svg width="335" height="128" viewBox="0 0 335 128" fill="none" xmlns="http://www.w3.org/2000/svg">
<rect x="0.5" y="0.5" width="334" height="127" rx="23.5" fill="#FCFCFD"/>
<path d="M17.38 25.165V30.085H20.305V31.66H16.795V33.1H17.89C17.65 35.05 17.23 36.595 16.63 37.75L17.86 38.62C18.535 37.45 19.015 35.62 19.315 33.1H20.305V38.515H21.835V24.745H20.305V28.66H18.865V25.165H17.38ZM23.455 28.885C23.905 29.26 24.31 29.635 24.67 29.995C24.055 30.235 23.365 30.445 22.6 30.625L23.305 31.915C27.07 30.955 29.305 29.23 29.995 26.755V25.585H26.08C26.17 25.405 26.275 25.21 26.38 25.015L24.955 24.685C24.115 26.17 23.14 27.31 22.03 28.12L22.99 29.275C23.14 29.155 23.29 29.02 23.455 28.885ZM25.9 29.41C25.45 29.005 24.91 28.57 24.28 28.09C24.475 27.88 24.67 27.64 24.88 27.4C25.57 27.895 26.185 28.39 26.71 28.885C26.47 29.065 26.2 29.23 25.9 29.41ZM27.625 28.06C27.175 27.67 26.65 27.265 26.065 26.845H28.42C28.225 27.265 27.955 27.67 27.625 28.06ZM24.13 33.775L22.9 34.525C23.65 35.305 24.25 36.025 24.685 36.655L25.915 35.8C25.495 35.23 24.895 34.555 24.13 33.775ZM22.3 32.005V33.475H27.64V36.61C27.64 36.97 27.475 37.165 27.145 37.165C26.56 37.165 25.93 37.12 25.27 37.06L25.615 38.53H27.67C28.66 38.53 29.17 38.005 29.17 36.985V33.475H30.43V32.005H29.17V30.145H27.64V32.005H22.3ZM41.17 28.285H42.97C42.91 30.115 42.625 31.705 42.115 33.07C41.725 32.11 41.455 31.06 41.335 29.89L40.51 30.13C40.75 29.575 40.96 28.96 41.17 28.285ZM41.305 34.795C40.705 35.77 39.925 36.58 38.995 37.225C38.425 36.955 37.855 36.73 37.315 36.52C37.765 36.07 38.11 35.56 38.335 34.96H39.37V33.7H35.56C35.59 33.61 35.65 33.505 35.71 33.4H36.205V32.965H38.905V31.03L39.565 31.87C39.745 31.6 39.94 31.3 40.12 30.97C40.33 32.38 40.735 33.655 41.305 34.795ZM35.89 35.995C35.41 35.83 34.93 35.695 34.48 35.575C34.6 35.38 34.72 35.17 34.855 34.96H36.865C36.655 35.35 36.34 35.695 35.89 35.995ZM39.085 37.495L39.79 38.62C40.705 37.945 41.485 37.135 42.145 36.205C42.79 37.135 43.6 37.945 44.59 38.65L45.535 37.39C44.5 36.655 43.645 35.77 42.985 34.75C43.84 32.98 44.32 30.82 44.41 28.285H45.175V26.83H41.53C41.65 26.23 41.77 25.585 41.86 24.895L40.315 24.625C40.045 26.935 39.55 28.84 38.83 30.31H36.205V29.8H38.65V28.255H39.295V26.995H38.65V25.375H36.205V24.7H34.795V25.375H32.365V26.995H31.735V28.255H32.365V29.8H34.795V30.31H32.11V32.965H34.45C34.33 33.205 34.195 33.445 34.075 33.7H31.75V34.96H33.385C33.175 35.32 32.95 35.695 32.71 36.085C33.295 36.25 33.88 36.445 34.465 36.685C33.745 36.925 32.875 37.105 31.84 37.24L32.41 38.5C33.91 38.275 35.155 37.9 36.13 37.36C36.865 37.69 37.6 38.05 38.335 38.47L39.085 37.495ZM37.33 28.765H36.205V28.105H37.33V28.765ZM36.205 27.115V26.455H37.33V27.115H36.205ZM34.795 28.765H33.685V28.105H34.795V28.765ZM33.685 27.115V26.455H34.795V27.115H33.685ZM37.585 31.96H36.205V31.3H37.585V31.96ZM34.795 31.96H33.43V31.3H34.795V31.96ZM49.795 24.535C49.06 26.845 47.935 28.855 46.42 30.55L46.945 32.23C47.41 31.75 47.845 31.255 48.265 30.745V38.59H49.825V28.465C50.425 27.445 50.905 26.365 51.265 25.24L49.795 24.535ZM50.89 26.935V28.42H60.07V26.935H56.275C56.08 26.11 55.885 25.375 55.69 24.73L54.025 25C54.265 25.6 54.49 26.245 54.7 26.935H50.89ZM50.65 36.46V37.99H60.46V36.46H57.325C58.03 34.435 58.63 32.125 59.11 29.53L57.61 29.14C57.07 32.035 56.455 34.48 55.735 36.46H50.65ZM53.08 29.275L51.64 29.74C52.24 31.78 52.735 33.91 53.125 36.13L54.58 35.74C54.13 33.31 53.635 31.165 53.08 29.275ZM62.14 31.51V32.74H64.405V33.475H61.81V34.855H68.335V33.475H65.77V32.74H68.005V31.51H65.77V30.79H68.23V25.135H61.93V30.79H64.405V31.51H62.14ZM62.035 35.425C61.975 36.445 61.795 37.36 61.525 38.17L62.8 38.56C63.025 37.69 63.16 36.685 63.22 35.575L62.035 35.425ZM64.72 35.515L63.595 35.665C63.64 36.31 63.67 37.225 63.685 38.395L64.945 38.23C64.9 37.09 64.825 36.175 64.72 35.515ZM67.9 35.23L66.805 35.545C67.03 36.325 67.225 37.135 67.39 37.96L68.5 37.555C68.35 36.835 68.155 36.07 67.9 35.23ZM66.295 35.44L65.185 35.665C65.335 36.4 65.47 37.24 65.575 38.2L66.82 37.915C66.67 37.015 66.49 36.19 66.295 35.44ZM66.985 29.62H65.605V26.305H66.985V29.62ZM64.51 29.62H63.175V27.205C63.355 27.835 63.52 28.51 63.655 29.2L64.465 28.99C64.315 28.18 64.135 27.46 63.94 26.845L63.175 27.085V26.305H64.51V29.62ZM66.055 26.695C65.98 27.49 65.86 28.24 65.68 28.945L66.49 29.23C66.685 28.495 66.82 27.73 66.895 26.92L66.055 26.695ZM70.87 24.76V31.075H68.86V38.56H70.33V37.855H73.36V38.56H74.83V31.075H72.4V28.795H75.415V27.37H72.4V24.76H70.87ZM70.33 36.445V32.485H73.36V36.445H70.33ZM77.035 28.135V34.21H78.805V35.17H76.78V36.46H78.805V38.515H80.23V36.46H82.15V35.17H80.23V34.21H81.94V28.135H80.23V27.19H82.015V25.93H80.23V24.715H78.805V25.93H76.855V27.19H78.805V28.135H77.035ZM80.8 33.07H80.065V31.735H80.8V33.07ZM78.94 33.07H78.22V31.735H78.94V33.07ZM78.22 30.595V29.275H78.94V30.595H78.22ZM80.065 29.275H80.8V30.595H80.065V29.275ZM82.465 25.375V26.575H85.465V27.145H82.72V31.675H85.495V32.41C84.565 32.44 83.56 32.455 82.45 32.47L82.63 33.655C84.505 33.595 86.065 33.52 87.31 33.445V34.285H82.51V35.575H83.38L82.825 36.4C83.485 36.73 84.145 37.195 84.79 37.795L85.54 36.655C85.03 36.235 84.475 35.875 83.89 35.575H87.31V36.805C87.31 37.09 87.19 37.24 86.95 37.24C86.53 37.24 86.095 37.21 85.63 37.165L85.945 38.545H87.46C88.315 38.545 88.75 38.08 88.75 37.15V35.575H90.295V34.285H88.75V33.34L89.14 33.31C89.26 33.52 89.38 33.745 89.5 33.955L90.46 33.28C90.19 32.8 89.815 32.275 89.365 31.675H89.665V27.145H86.92V26.575H89.965V25.375H86.92V24.7H85.465V25.375H82.465ZM88.48 32.275C88 32.305 87.475 32.335 86.905 32.365V31.675H88.06L88.48 32.275ZM88.36 30.67H86.845V29.905H88.36V30.67ZM85.555 30.67H84.025V29.905H85.555V30.67ZM84.025 28.9V28.15H85.555V28.9H84.025ZM86.845 28.15H88.36V28.9H86.845V28.15ZM93.49 38.395C94.39 38.395 94.855 37.87 94.855 36.85V32.725C95.29 32.515 95.725 32.305 96.175 32.08V30.55C95.74 30.79 95.305 31 94.855 31.21V28.765H96.01V28.24L96.835 29.215L97.105 28.99V33.55H96.16V34.93H99.535C99.385 35.155 99.22 35.365 99.04 35.575C98.365 36.235 97.27 36.76 95.755 37.135L96.325 38.455C98.155 37.975 99.445 37.315 100.165 36.49C100.555 36.04 100.87 35.53 101.125 34.93H105.445V33.55H104.575V27.955H102.205C102.595 27.55 102.97 27.085 103.345 26.545V25.495H100.015C100.12 25.315 100.225 25.12 100.33 24.925L98.92 24.61C98.08 26.05 97.12 27.19 96.01 28V27.28H94.855V24.7H93.355V27.28H91.825V28.765H93.355V31.81C92.755 32.02 92.155 32.185 91.54 32.335L91.915 33.835C92.395 33.685 92.875 33.52 93.355 33.34V36.46C93.355 36.79 93.22 36.97 92.95 36.97C92.605 36.97 92.245 36.94 91.855 36.88L92.2 38.395H93.49ZM100.435 27.955H98.2C98.53 27.58 98.86 27.175 99.19 26.755H101.53C101.155 27.205 100.795 27.595 100.435 27.955ZM98.485 33.55V29.215H103.18V33.55H101.53C101.575 33.31 101.62 33.055 101.65 32.785L100.27 32.635C100.24 32.935 100.18 33.25 100.105 33.55H98.485ZM100.84 31.435C101.38 31.81 101.83 32.215 102.22 32.665L102.97 31.765C102.505 31.3 101.95 30.865 101.305 30.475C101.41 30.205 101.515 29.905 101.605 29.575L100.48 29.425C100.24 30.475 99.655 31.3 98.755 31.87L99.49 32.815C100.015 32.485 100.465 32.035 100.84 31.435ZM101.785 35.23L101.035 36.34C102.295 36.88 103.525 37.63 104.71 38.575L105.52 37.33C104.395 36.52 103.15 35.815 101.785 35.23ZM116.32 28.315L115.99 29.59H112.525C112.705 29.185 112.885 28.765 113.05 28.315H116.32ZM111.805 30.97H117.61L117.31 32.395H110.86C111.19 31.945 111.505 31.465 111.805 30.97ZM118.84 32.395L119.32 29.59H117.52L118.06 26.935H113.485C113.665 26.29 113.83 25.615 113.98 24.895L112.435 24.7C112.285 25.48 112.105 26.215 111.895 26.935H110.59L111.295 26.44C110.995 25.96 110.59 25.39 110.05 24.76L108.82 25.54C109.21 26.035 109.555 26.5 109.84 26.935H107.635V28.315H111.4C110.365 30.805 108.76 32.77 106.6 34.21L107.38 35.605C108.19 35.08 108.955 34.48 109.645 33.79H118.6C118.57 35.29 118.48 36.22 118.33 36.565C118.18 36.925 117.805 37.12 117.205 37.135C116.8 37.105 116.29 37.075 115.675 37.03L116.08 38.5C116.65 38.545 117.145 38.575 117.565 38.575C118.51 38.575 119.185 38.275 119.575 37.69C119.95 37.12 120.145 35.35 120.175 32.395H118.84ZM109.33 34.585C109.015 35.53 108.49 36.43 107.755 37.27L109.12 38.14C109.825 37.225 110.365 36.145 110.755 34.9L109.33 34.585ZM112.555 34.825L111.235 34.99C111.475 35.62 111.625 36.505 111.7 37.675L113.185 37.495C113.08 36.355 112.87 35.47 112.555 34.825ZM114.64 34.525L113.44 34.87C113.74 35.65 114.01 36.46 114.22 37.3L115.63 36.775C115.39 36.085 115.06 35.335 114.64 34.525ZM116.92 34.105L115.675 34.51C116.005 35.185 116.275 35.89 116.485 36.625L117.91 36.265C117.61 35.44 117.28 34.72 116.92 34.105Z" fill="#344054"/>
<g clip-path="url(#clip0_3961_65105)">
<path d="M133.25 28.25H134.75V29.75H133.25V28.25ZM133.25 31.25H134.75V35.75H133.25V31.25ZM134 24.5C129.86 24.5 126.5 27.86 126.5 32C126.5 36.14 129.86 39.5 134 39.5C138.14 39.5 141.5 36.14 141.5 32C141.5 27.86 138.14 24.5 134 24.5ZM134 38C130.693 38 128 35.3075 128 32C128 28.6925 130.693 26 134 26C137.307 26 140 28.6925 140 32C140 35.3075 137.307 38 134 38Z" fill="#898989"/>
</g>
<rect x="16" y="60" width="303" height="48" rx="16" fill="#F2F4F7"/>
<path d="M48.4492 79.2138C50.3151 79.1726 51.4277 80.1428 51.6307 80.7867L53.9117 80.1634C53.5291 79.3284 52.2223 77.1617 48.5286 77C41.5298 77 41 83.5502 41 84.2146C41 91.1206 46.1388 91.8879 48.1343 91.9791C49.9149 92.0643 52.6609 91.8791 54 91.6086V83.2592H46.7804V85.567H51.2893C51.3129 85.567 51.3305 85.5847 51.3305 85.6082V89.6536C51.3305 89.6771 51.3129 89.7006 51.2893 89.7094C51.2893 89.7094 50.1709 89.9299 48.561 89.877C47.9282 89.8593 43.9667 89.7006 43.9667 84.5145C43.9667 81.1806 45.6296 79.2432 48.4433 79.2138" fill="#EB5183"/>
<path d="M73.32 78.808C71.836 78.808 70.66 79.312 69.792 80.348C68.966 81.314 68.56 82.546 68.56 84.044C68.56 85.528 68.966 86.746 69.792 87.684C70.674 88.692 71.906 89.196 73.502 89.196C74.398 89.196 75.196 89.084 75.924 88.86C76.61 88.636 77.212 88.328 77.744 87.908V83.68H73.46V85.08H76.106V87.138C75.77 87.334 75.42 87.488 75.028 87.6C74.608 87.712 74.16 87.768 73.684 87.768C72.466 87.768 71.57 87.432 70.996 86.76C70.464 86.13 70.198 85.22 70.198 84.044C70.198 82.812 70.492 81.874 71.094 81.202C71.64 80.558 72.382 80.25 73.32 80.25C74.076 80.25 74.692 80.404 75.154 80.726C75.602 81.048 75.91 81.524 76.05 82.168H77.702C77.52 81.048 77.072 80.222 76.358 79.662C75.616 79.088 74.608 78.808 73.32 78.808ZM82.404 79.004L78.582 89H80.332L81.242 86.494H85.428L86.338 89H88.088L84.266 79.004H82.404ZM81.732 85.15L83.314 80.768H83.37L84.938 85.15H81.732ZM92.592 78.808C91.514 78.808 90.632 79.046 89.932 79.536C89.176 80.04 88.812 80.74 88.812 81.622C88.812 82.504 89.19 83.176 89.96 83.638C90.254 83.806 91.024 84.086 92.256 84.478C93.362 84.814 94.006 85.038 94.202 85.136C94.818 85.444 95.14 85.864 95.14 86.396C95.14 86.816 94.916 87.138 94.496 87.39C94.076 87.628 93.488 87.754 92.76 87.754C91.934 87.754 91.332 87.6 90.94 87.32C90.506 86.998 90.24 86.452 90.128 85.696H88.504C88.574 86.97 89.036 87.894 89.876 88.482C90.562 88.958 91.528 89.196 92.76 89.196C94.034 89.196 95.028 88.93 95.728 88.426C96.428 87.908 96.778 87.194 96.778 86.298C96.778 85.374 96.344 84.66 95.476 84.142C95.084 83.918 94.216 83.582 92.858 83.162C91.934 82.868 91.36 82.658 91.15 82.546C90.674 82.294 90.45 81.944 90.45 81.524C90.45 81.048 90.646 80.698 91.066 80.488C91.402 80.306 91.878 80.222 92.508 80.222C93.236 80.222 93.796 80.348 94.16 80.628C94.524 80.894 94.79 81.342 94.93 81.958H96.554C96.456 80.866 96.05 80.054 95.35 79.536C94.692 79.046 93.768 78.808 92.592 78.808ZM98.1831 79.004V89H99.8211V84.576H104.889V89H106.527V79.004H104.889V83.176H99.8211V79.004H98.1831ZM113.238 83.876V85.024H115.352V85.71H112.93V86.998H119.02V85.71H116.626V85.024H118.712V83.876H116.626V83.204H118.922V77.926H113.042V83.204H115.352V83.876H113.238ZM113.14 87.53C113.084 88.482 112.916 89.336 112.664 90.092L113.854 90.456C114.064 89.644 114.19 88.706 114.246 87.67L113.14 87.53ZM115.646 87.614L114.596 87.754C114.638 88.356 114.666 89.21 114.68 90.302L115.856 90.148C115.814 89.084 115.744 88.23 115.646 87.614ZM118.614 87.348L117.592 87.642C117.802 88.37 117.984 89.126 118.138 89.896L119.174 89.518C119.034 88.846 118.852 88.132 118.614 87.348ZM117.116 87.544L116.08 87.754C116.22 88.44 116.346 89.224 116.444 90.12L117.606 89.854C117.466 89.014 117.298 88.244 117.116 87.544ZM117.76 82.112H116.472V79.018H117.76V82.112ZM115.45 82.112H114.204V79.858C114.372 80.446 114.526 81.076 114.652 81.72L115.408 81.524C115.268 80.768 115.1 80.096 114.918 79.522L114.204 79.746V79.018H115.45V82.112ZM116.892 79.382C116.822 80.124 116.71 80.824 116.542 81.482L117.298 81.748C117.48 81.062 117.606 80.348 117.676 79.592L116.892 79.382ZM121.386 77.576V83.47H119.51V90.456H120.882V89.798H123.71V90.456H125.082V83.47H122.814V81.342H125.628V80.012H122.814V77.576H121.386ZM120.882 88.482V84.786H123.71V88.482H120.882ZM135.666 80.866H137.346C137.29 82.574 137.024 84.058 136.548 85.332C136.184 84.436 135.932 83.456 135.82 82.364L135.05 82.588C135.274 82.07 135.47 81.496 135.666 80.866ZM135.792 86.942C135.232 87.852 134.504 88.608 133.636 89.21C133.104 88.958 132.572 88.748 132.068 88.552C132.488 88.132 132.81 87.656 133.02 87.096H133.986V85.92H130.43C130.458 85.836 130.514 85.738 130.57 85.64H131.032V85.234H133.552V83.428L134.168 84.212C134.336 83.96 134.518 83.68 134.686 83.372C134.882 84.688 135.26 85.878 135.792 86.942ZM130.738 88.062C130.29 87.908 129.842 87.782 129.422 87.67C129.534 87.488 129.646 87.292 129.772 87.096H131.648C131.452 87.46 131.158 87.782 130.738 88.062ZM133.72 89.462L134.378 90.512C135.232 89.882 135.96 89.126 136.576 88.258C137.178 89.126 137.934 89.882 138.858 90.54L139.74 89.364C138.774 88.678 137.976 87.852 137.36 86.9C138.158 85.248 138.606 83.232 138.69 80.866H139.404V79.508H136.002C136.114 78.948 136.226 78.346 136.31 77.702L134.868 77.45C134.616 79.606 134.154 81.384 133.482 82.756H131.032V82.28H133.314V80.838H133.916V79.662H133.314V78.15H131.032V77.52H129.716V78.15H127.448V79.662H126.86V80.838H127.448V82.28H129.716V82.756H127.21V85.234H129.394C129.282 85.458 129.156 85.682 129.044 85.92H126.874V87.096H128.4C128.204 87.432 127.994 87.782 127.77 88.146C128.316 88.3 128.862 88.482 129.408 88.706C128.736 88.93 127.924 89.098 126.958 89.224L127.49 90.4C128.89 90.19 130.052 89.84 130.962 89.336C131.648 89.644 132.334 89.98 133.02 90.372L133.72 89.462ZM132.082 81.314H131.032V80.698H132.082V81.314ZM131.032 79.774V79.158H132.082V79.774H131.032ZM129.716 81.314H128.68V80.698H129.716V81.314ZM128.68 79.774V79.158H129.716V79.774H128.68ZM132.32 84.296H131.032V83.68H132.32V84.296ZM129.716 84.296H128.442V83.68H129.716V84.296Z" fill="#475467"/>
<circle cx="288" cy="83.4998" r="11" fill="#D0D5DD"/>
<path d="M288 87.4035L293.509 81.8935L292.213 80.5973L287.996 84.814L283.786 80.5973L282.49 81.8935L288 87.4035Z" fill="#344054"/>
<rect x="0.5" y="0.5" width="334" height="127" rx="23.5" stroke="#E4E7EC"/>
<defs>
<clipPath id="clip0_3961_65105">
<rect width="18" height="18" fill="white" transform="translate(125 23)"/>
</clipPath>
</defs>
</svg>
