<svg width="126" height="62" viewBox="0 0 126 62" fill="none" xmlns="http://www.w3.org/2000/svg">
<rect width="126" height="62" rx="24" fill="#F9FAFB"/>
<rect x="15" y="12" width="96" height="38" rx="19" fill="url(#paint0_linear_1087_7672)"/>
<path d="M38.71 29.574H35.532V31.128H37.1V34.726H38.71V29.574ZM38.71 34.068H37.254C36.638 34.586 35.952 35.09 35.364 35.468L36.162 37.134C36.862 36.532 37.45 36 38.01 35.454C38.85 36.532 39.984 36.938 41.664 37.008C43.372 37.092 46.354 37.064 48.104 36.98C48.174 36.49 48.44 35.72 48.622 35.342C46.676 35.496 43.358 35.538 41.678 35.454C40.236 35.398 39.242 34.992 38.71 34.068ZM35.574 25.416C36.372 26.102 37.31 27.068 37.688 27.754L39.074 26.69C38.64 26.032 37.66 25.094 36.862 24.478L35.574 25.416ZM39.326 25.122V26.48H48.146V25.122H39.326ZM39.144 32.458V33.83H48.314V32.458H39.144ZM42.826 24.114V35.132H44.464V24.114H42.826ZM41.412 29.98H45.92V30.68H41.412V29.98ZM41.412 28.216H45.92V28.902H41.412V28.216ZM39.872 27.054V31.842H47.53V27.054H39.872ZM57.316 24.1V26.004H59.01V24.1H57.316ZM54.18 25.444V26.858H62.16V25.444H54.18ZM53.746 28.636V30.064H62.51V28.636H53.746ZM55.454 26.9C55.692 27.558 55.874 28.426 55.888 28.958L57.414 28.622C57.372 28.09 57.148 27.264 56.896 26.62L55.454 26.9ZM59.402 26.634C59.276 27.25 59.024 28.132 58.8 28.72L60.214 28.916C60.466 28.37 60.746 27.6 61.026 26.802L59.402 26.634ZM53.858 31.058V32.472H62.482V31.058H53.858ZM56.756 29.714C56.154 31.268 55.216 33.284 54.516 34.53L55.958 34.992C56.7 33.676 57.68 31.702 58.436 30.036L56.756 29.714ZM55.51 34.544C57.498 35.188 60.046 36.35 61.264 37.26L62.342 36.014C61.012 35.09 58.436 34.012 56.49 33.438L55.51 34.544ZM59.402 32.094C58.814 34.698 57.26 35.622 53.424 35.93C53.662 36.252 53.914 36.826 54.04 37.288C58.422 36.714 60.284 35.566 61.012 32.262L59.402 32.094ZM49.28 31.268L49.63 32.906C50.918 32.556 52.542 32.108 54.068 31.66L53.872 30.176C52.206 30.596 50.456 31.03 49.28 31.268ZM49.56 26.774V28.314H53.886V26.774H49.56ZM51.212 24.128V35.37C51.212 35.566 51.142 35.636 50.96 35.636C50.778 35.636 50.204 35.636 49.658 35.608C49.868 36.07 50.078 36.798 50.134 37.246C51.086 37.246 51.758 37.19 52.22 36.91C52.682 36.644 52.822 36.196 52.822 35.37V24.128H51.212ZM69.216 26.004L69.342 27.334L76.258 26.62L76.146 25.304L69.216 26.004ZM69.118 32.22L69.23 33.578L76.454 32.836L76.328 31.52L69.118 32.22ZM70.476 24.114C70.784 27.67 72.912 30.624 74.886 30.624C75.838 30.638 76.286 30.33 76.524 28.958C76.16 28.832 75.712 28.594 75.418 28.314C75.348 28.986 75.278 29.21 74.984 29.21C73.92 29.21 72.198 26.788 71.974 24.114H70.476ZM70.518 30.358C70.784 34.124 72.73 37.246 74.9 37.246C75.908 37.246 76.37 36.91 76.608 35.412C76.23 35.286 75.768 35.034 75.46 34.74C75.39 35.524 75.292 35.79 74.998 35.79C73.822 35.818 72.226 33.242 72.044 30.358H70.518ZM74.34 26.83C73.248 28.048 70.994 28.874 68.782 29.308C69.076 29.602 69.538 30.218 69.734 30.526C71.974 29.924 74.396 28.902 75.726 27.348L74.34 26.83ZM74.452 33.032C73.318 34.46 70.91 35.398 68.488 35.874C68.768 36.182 69.23 36.868 69.412 37.204C71.932 36.546 74.508 35.384 75.922 33.564L74.452 33.032ZM72.996 24.926C73.57 25.122 74.312 25.458 74.676 25.724L75.446 24.856C75.054 24.59 74.298 24.296 73.738 24.128L72.996 24.926ZM72.73 31.044C73.304 31.282 74.032 31.66 74.396 31.954L75.334 31.1C74.928 30.82 74.186 30.47 73.612 30.274L72.73 31.044ZM64.4 27.6V29H68.446V27.6H64.4ZM63.728 30.022V31.45H68.838V30.022H63.728ZM63.868 32.234C64.078 33.018 64.274 34.026 64.302 34.698L65.436 34.404C65.366 33.732 65.17 32.752 64.932 31.968L63.868 32.234ZM63.574 35.44L63.896 36.966C65.366 36.672 67.298 36.28 69.104 35.888L68.992 34.502C67.032 34.866 64.946 35.244 63.574 35.44ZM67.746 31.856C67.648 32.528 67.438 33.508 67.256 34.138L68.264 34.418C68.474 33.83 68.698 32.948 68.95 32.15L67.746 31.856ZM65.646 28.16V35.958L67.088 35.706V28.16H65.646ZM65.576 24.114C65.142 25.206 64.316 26.522 63.14 27.53C63.448 27.754 63.924 28.286 64.148 28.622C65.534 27.362 66.388 25.92 66.934 24.856V24.422H66.458V24.114H65.576ZM65.786 24.114V25.304H66.08C66.836 25.934 67.788 27.11 68.236 27.824L69.314 26.536C68.81 25.822 67.774 24.814 66.962 24.114H65.786ZM80.696 24.044C79.968 25.934 78.694 27.796 77.266 28.916C77.7 29.182 78.428 29.798 78.75 30.134C80.178 28.804 81.592 26.704 82.474 24.548L80.696 24.044ZM80.976 25.668L80.178 27.25H88.424V25.668H80.976ZM87.92 25.668V25.99C87.822 30.19 87.696 31.688 87.43 32.038C87.318 32.192 87.178 32.248 86.968 32.248C86.716 32.248 86.24 32.248 85.708 32.178C85.96 32.626 86.142 33.298 86.156 33.788C86.856 33.788 87.486 33.802 87.878 33.718C88.326 33.648 88.648 33.508 88.942 33.088C89.348 32.542 89.474 30.848 89.6 26.382C89.614 26.158 89.614 25.668 89.614 25.668H87.92ZM80.206 31.478V32.962H85.694V28.314H79.94V29.784H84.042V31.478H80.206ZM79.45 31.478V34.922C79.45 36.686 80.206 37.148 82.824 37.148C83.412 37.148 86.716 37.148 87.318 37.148C89.558 37.148 90.118 36.63 90.398 34.488C89.922 34.404 89.194 34.138 88.788 33.9C88.648 35.342 88.452 35.58 87.262 35.58C86.408 35.58 83.51 35.58 82.852 35.58C81.368 35.58 81.116 35.482 81.116 34.894V31.478H79.45Z" fill="#EFEFEF"/>
<defs>
<linearGradient id="paint0_linear_1087_7672" x1="18.8571" y1="29.7609" x2="110.999" y2="31.0949" gradientUnits="userSpaceOnUse">
<stop stop-color="#E72E6B"/>
<stop offset="1" stop-color="#F3973D"/>
</linearGradient>
</defs>
</svg>
