<svg width="73" height="35" viewBox="0 0 73 35" fill="none" xmlns="http://www.w3.org/2000/svg">
<g clip-path="url(#clip0_3298_47792)">
<path d="M33.3435 17.1239C33.9367 16.7269 34.2545 16.1 34.2545 15.3269V15.0971C34.2545 14.324 33.9791 13.718 33.4283 13.3001C32.8139 12.8404 31.8818 12.6106 30.5896 12.6106C29.8906 12.6106 29.2127 12.6523 28.6619 12.7359C28.1958 12.7986 28.0264 12.9867 28.0264 13.4881V21.5119C28.0264 22.0343 28.1958 22.2223 28.6831 22.2641C29.2127 22.3059 29.9753 22.3268 30.6532 22.3268C32.1996 22.3268 33.28 22.076 33.9579 21.5537C34.551 21.094 34.8476 20.4044 34.8476 19.485V19.2761C34.8264 18.2313 34.2968 17.4791 33.3435 17.1239ZM30.1236 14.4284V14.3657H30.1448C30.3354 14.3448 30.5261 14.3448 30.8227 14.3448C31.2675 14.3448 31.6065 14.4284 31.7971 14.5747C31.9878 14.721 32.0725 14.9508 32.0725 15.2642V15.4314C32.0725 16.1627 31.6276 16.497 30.6532 16.497H30.1024V14.4284H30.1236ZM32.6657 19.4642C32.6657 19.8403 32.5386 20.1328 32.3055 20.3C32.0301 20.488 31.6488 20.5716 30.9709 20.5716C30.632 20.5716 30.4202 20.5507 30.2295 20.5298C30.1659 20.5298 30.1448 20.5089 30.1448 20.5089C30.1448 20.5089 30.1236 20.488 30.1236 20.4253V18.1687H31.0345C31.6065 18.1687 31.9878 18.2522 32.2632 18.4403C32.5174 18.6283 32.6657 18.9209 32.6657 19.297V19.4642ZM37.2202 12.1718H37.1567C36.4364 12.1718 35.9915 12.6106 35.9915 13.3001V13.3837C35.9915 14.1568 36.3729 14.5329 37.1567 14.5329H37.2202C37.9193 14.5329 38.3853 14.0732 38.3853 13.3837V13.3001C38.3853 12.5897 37.9617 12.1718 37.2202 12.1718ZM37.6439 14.9926H36.733C36.394 14.9926 36.1822 15.0762 36.1822 15.4941V21.8253C36.1822 22.2432 36.394 22.3268 36.733 22.3268H37.6439C37.9828 22.3268 38.1947 22.2432 38.1947 21.8253V15.4941C38.1947 15.0762 37.9828 14.9926 37.6439 14.9926ZM43.7025 20.5925H42.9823C42.6009 20.5925 42.495 20.5507 42.4103 20.4462C42.3044 20.3209 42.2832 20.2164 42.2832 19.694V16.706H43.5754C43.9779 16.706 44.0203 16.4344 44.0203 16.2045V15.4941C44.0203 15.1807 43.9355 14.9717 43.5754 14.9717H42.2832V13.6762C42.2832 13.2583 42.0713 13.1747 41.7324 13.1747H40.8215C40.4825 13.1747 40.2707 13.2583 40.2707 13.6762V15.0762L39.4657 15.2224C39.2115 15.2642 39.1056 15.3896 39.1056 15.6612V16.2881C39.1056 16.5806 39.2327 16.706 39.5293 16.706H40.2495V19.9865C40.2495 20.8641 40.4402 21.4492 40.8427 21.8253C41.224 22.1805 41.7536 22.3268 42.6433 22.3268H43.6813C44.105 22.3268 44.1686 22.1596 44.1686 21.8253V21.1149C44.1897 20.7805 44.1262 20.5925 43.7025 20.5925ZM51.6889 13.2583C50.9686 12.8404 49.9942 12.5897 49.0197 12.5897C47.8546 12.5897 47.0072 12.8195 46.3929 13.3001C45.4184 14.0732 45.0795 15.0971 45.0795 17.2284V17.8134C45.0795 19.7776 45.376 20.8641 46.0751 21.5537C46.6895 22.1596 47.558 22.4313 48.9985 22.4313C49.8247 22.4313 50.6932 22.2641 51.4347 21.9716C51.8583 21.8044 51.9007 21.6164 51.8372 21.282L51.6677 20.5925C51.6253 20.4253 51.5618 20.3209 51.4347 20.2582C51.3499 20.2164 51.2228 20.1955 51.0322 20.2582C50.4814 20.488 49.8035 20.6343 49.2315 20.6343C48.4901 20.6343 47.9817 20.4671 47.7063 20.1537C47.3673 19.7567 47.2402 19.0463 47.2402 17.6045V17.3537C47.2402 16.0165 47.325 15.1807 47.7487 14.7627C48.0029 14.512 48.2994 14.3657 49.0197 14.3657C49.6128 14.3657 50.2272 14.5329 50.8415 14.8672C50.9898 14.9508 51.1381 14.9717 51.2652 14.9299C51.3499 14.909 51.4347 14.8463 51.4982 14.7001L51.8372 13.8434C51.9431 13.6553 51.9854 13.4255 51.6889 13.2583ZM58.0441 15.3478C57.5145 14.9926 56.9213 14.8672 55.8621 14.8672C55.0783 14.8672 54.1674 15.0344 53.6378 15.2224C53.2565 15.3269 53.2565 15.5777 53.32 15.8075L53.4471 16.497C53.4683 16.6015 53.5107 16.7478 53.6378 16.8105C53.7225 16.8732 53.8496 16.8732 53.9767 16.8314C54.5275 16.6642 55.2054 16.5597 55.735 16.5597C56.2434 16.5597 56.4765 16.6015 56.6459 16.7269C56.7942 16.8523 56.8366 17.0194 56.8366 17.3537V17.5836C56.5612 17.5627 56.3494 17.5627 56.1587 17.5627H55.6291C54.5911 17.5627 53.8708 17.7508 53.426 18.1269C52.9811 18.4821 52.7693 19.0671 52.7693 19.903V20.2373C52.7693 20.9895 53.0023 21.5746 53.4471 21.9507C53.8708 22.3059 54.3369 22.4522 55.1419 22.4522H55.6715C56.4129 22.4522 56.9001 22.285 57.2391 21.888L57.2603 21.9507C57.3238 22.2014 57.4721 22.3268 57.7475 22.3268H58.4042C58.6796 22.3268 58.8491 22.1805 58.8491 21.9089V17.3537C58.8702 16.3299 58.6372 15.7448 58.0441 15.3478ZM56.8578 19.9656C56.8578 20.5507 56.6247 20.7805 56.0528 20.7805H55.5232C55.2054 20.7805 55.0571 20.697 54.9724 20.6343C54.9088 20.5716 54.8029 20.4462 54.8029 20.091V19.9238C54.8029 19.6104 54.8665 19.4224 54.9724 19.3179C55.0783 19.2343 55.2902 19.1716 55.6291 19.1716H56.1375C56.3282 19.1716 56.5612 19.1716 56.8366 19.1925L56.8578 19.9656ZM63.6366 17.8134L62.7257 17.6045C62.2385 17.5 62.0902 17.3746 62.0902 17.103V16.9985C62.0902 16.7896 62.1538 16.706 62.2385 16.6433C62.3656 16.5597 62.6198 16.5179 63.0647 16.5179C63.5095 16.5179 64.1027 16.6224 64.4416 16.7478C64.5899 16.7896 64.717 16.7896 64.8018 16.7269C64.8865 16.6642 64.95 16.5806 64.9712 16.4553L65.1407 15.6403C65.2043 15.3478 65.1407 15.2224 64.8653 15.1389C64.4416 14.9926 63.6366 14.8463 62.874 14.8463C61.8995 14.8463 61.264 14.9926 60.8192 15.3478C60.3531 15.7239 60.1201 16.2463 60.1201 17.0194V17.1448C60.1201 17.7508 60.2896 18.2313 60.5861 18.5657C60.9039 18.9209 61.264 19.1089 61.9419 19.2552L62.8105 19.4642C63.4036 19.6104 63.5519 19.7358 63.5519 20.0701V20.1746C63.5519 20.4462 63.4672 20.5507 63.3612 20.6134C63.213 20.7179 62.9588 20.7597 62.4927 20.7597C61.9843 20.7597 61.264 20.5716 60.798 20.4044C60.6497 20.3417 60.5226 20.3417 60.4167 20.4044C60.3108 20.4671 60.226 20.5716 60.2048 20.7179L60.0354 21.4283C59.9506 21.7417 60.0354 21.9089 60.3531 22.0134C60.9886 22.285 61.8572 22.4313 62.6198 22.4313C63.6366 22.4313 64.3781 22.2014 64.8653 21.7417C65.289 21.3447 65.5008 20.7805 65.5008 20.091V19.9238C65.5008 19.3597 65.3949 18.9836 65.1619 18.6492C64.8865 18.2522 64.3993 17.9806 63.6366 17.8134ZM72.5975 15.9329C72.1526 15.2224 71.4323 14.8672 70.4155 14.8672C69.7376 14.8672 69.208 14.9926 68.7632 15.2642V12.6732C68.7632 12.2553 68.5513 12.1718 68.2124 12.1718H67.3015C66.9625 12.1718 66.7507 12.2553 66.7507 12.6732V21.8044C66.7507 22.2223 66.9625 22.3059 67.3015 22.3059H68.2124C68.5513 22.3059 68.7632 22.2223 68.7632 21.8044V17.6254C68.7632 17.0194 68.8903 16.8523 69.0174 16.7269C69.1445 16.6015 69.3351 16.497 69.8859 16.497C70.2884 16.497 70.5214 16.5806 70.7121 16.7687C70.9027 16.9567 70.9663 17.2284 70.9663 17.7925V21.8044C70.9663 22.2223 71.1781 22.3059 71.5171 22.3059H72.428C72.7669 22.3059 72.9788 22.2223 72.9788 21.8044V17.8761C73 17.2702 72.9576 16.497 72.5975 15.9329Z" fill="black"/>
<path d="M18.2182 15.0136C18.8537 14.0107 19.2351 12.8196 19.2351 11.545C19.2351 10.3122 18.8961 9.18388 18.303 8.20181C17.1802 6.36304 15.1889 5.08843 12.8799 5.00485H12.6257C9.1303 5.00485 5.97388 6.40483 3.68601 8.6615C3.66483 8.68239 3.64365 8.70329 3.64365 8.72418C2.39379 9.97789 1.41933 11.4823 0.783807 13.154C0.275392 14.5121 0 15.9539 0 17.5001C0 19.3389 0.402496 21.115 1.14394 22.6821C1.77945 24.0403 2.648 25.2731 3.7072 26.3179C5.69849 28.282 8.34649 29.5984 11.3122 29.9118C11.5876 29.9327 11.8418 29.9536 12.1172 29.9745C12.2867 29.9745 12.4562 29.9954 12.6257 29.9954H12.9434C13.6001 29.9745 14.2145 29.8701 14.8076 29.7238C17.7945 28.9507 20.146 26.6104 20.9298 23.6642C21.1204 22.9747 21.2052 22.2433 21.2052 21.512C21.2052 18.8792 20.04 16.5808 18.2182 15.0136ZM12.7739 24.8343H12.5833C12.4562 24.8343 12.3291 24.8343 12.202 24.8134C10.3166 24.709 8.6007 23.9149 7.32966 22.6612C6.99071 22.3269 6.71532 21.9717 6.43993 21.5956C5.63494 20.4255 5.14771 19.0046 5.14771 17.4792C5.14771 17.1449 5.19008 16.7897 5.23244 16.4763C5.46547 14.8674 6.20691 13.4047 7.32966 12.2973C8.51596 11.1271 10.0836 10.354 11.8418 10.1868C11.969 10.1868 12.0749 10.1659 12.202 10.1451H12.5833C12.9597 10.1451 13.3207 10.2926 13.5869 10.5551C13.8531 10.8176 14.0026 11.1737 14.0026 11.545C14.0026 11.9163 13.8531 12.2724 13.5869 12.535C13.3207 12.7975 12.9597 12.945 12.5833 12.945C11.6936 12.945 10.9098 13.3838 10.4437 14.0524C10.1471 14.4703 9.97766 14.9718 9.97766 15.5151C9.97766 16.936 11.1428 18.0852 12.5833 18.0852H12.7739C14.5534 18.1897 15.9939 19.6523 15.9939 21.4493C15.9939 23.2463 14.5746 24.7299 12.7739 24.8343Z" fill="#00388B"/>
<path d="M12.7739 18.106H12.5833C11.1428 18.106 9.97764 16.9567 9.97764 15.5359C9.97764 14.115 11.1428 12.9658 12.5833 12.9658H12.2655C10.7403 13.0493 9.34212 13.6971 8.32529 14.7001C7.2449 15.7866 6.56702 17.2702 6.56702 18.9C6.56702 20.5298 7.2449 22.0133 8.32529 23.0999C9.34212 24.1029 10.7191 24.7506 12.2655 24.8342H12.7739C14.5534 24.7297 15.9939 23.2671 15.9939 21.4701C15.9939 19.6731 14.5746 18.1895 12.7739 18.106Z" fill="#ABCD03"/>
<path d="M12.6045 24.8342H12.2868C10.7615 24.7506 9.36337 24.1029 8.34654 23.0999C7.26616 22.0133 6.58827 20.5298 6.58827 18.9C6.58827 17.2701 7.26616 15.7866 8.34654 14.7C9.36337 13.6971 10.7403 13.0493 12.2868 12.9657H12.6045C12.981 12.9657 13.342 12.8183 13.6081 12.5557C13.8743 12.2932 14.0238 11.9371 14.0238 11.5658C14.0238 11.1945 13.8743 10.8384 13.6081 10.5758C13.342 10.3133 12.981 10.1658 12.6045 10.1658H12.2232C10.3378 10.2703 8.62193 11.0643 7.3509 12.318C6.0163 13.6344 5.16895 15.4732 5.16895 17.5C5.16895 19.5268 5.99512 21.3447 7.3509 22.682C8.60075 23.9357 10.3167 24.7297 12.2232 24.8342H12.7952H12.6045Z" fill="#E62E8B"/>
</g>
<defs>
<clipPath id="clip0_3298_47792">
<rect width="73" height="25" fill="white" transform="translate(0 5)"/>
</clipPath>
</defs>
</svg>
