<svg width="97" height="35" viewBox="0 0 97 35" fill="none" xmlns="http://www.w3.org/2000/svg">
<path fill-rule="evenodd" clip-rule="evenodd" d="M6.00484 11.0993C6.00164 11.0667 6 11.0337 6 11.0003C6 10.0095 5.34906 9.29278 4.55279 8.89465C4.05881 8.64766 3.85858 8.04698 4.10557 7.55301C4.35256 7.05903 4.95324 6.8588 5.44721 7.10579C6.65094 7.70765 8 8.99094 8 11.0003C8 11.0337 7.99836 11.0667 7.99516 11.0993C10.2797 11.5606 11.9999 13.5794 12 16V16.0002V17C12.0001 14.5794 13.7203 12.5606 16.0048 12.0993C16.0016 12.0667 16 12.0336 16 12.0002C16 11.237 16.3517 10.2724 16.9691 9.50052C17.6119 8.69701 18.6283 8.00022 20 8.00022C20.5523 8.00022 21 8.44793 21 9.00022C21 9.5525 20.5523 10.0002 20 10.0002C19.3717 10.0002 18.8881 10.3034 18.5309 10.7499C18.1483 11.2281 18 11.7635 18 12.0002C18 12.0336 17.9984 12.0667 17.9952 12.0993C20.2797 12.5606 21.9999 14.5794 22 17V17.0002V25C22 26.1045 21.1046 27 20 27H12H4C2.89543 27 2 26.1045 2 25V16.0002V16C2.00012 13.5794 3.72026 11.5606 6.00484 11.0993Z" fill="#7B61FF"/>
<circle cx="7" cy="16" r="3" fill="white"/>
<circle cx="17" cy="17" r="3" fill="white"/>
<circle cx="7" cy="16" r="2" fill="#7B61FF"/>
<circle cx="17" cy="17" r="2" fill="#7B61FF"/>
<path d="M32.8869 22.5V12.3182H36.9636C37.7127 12.3182 38.3374 12.4292 38.8379 12.6513C39.3384 12.8733 39.7145 13.1816 39.9664 13.576C40.2183 13.9671 40.3443 14.4179 40.3443 14.9283C40.3443 15.326 40.2647 15.6757 40.1056 15.9773C39.9466 16.2756 39.7278 16.5208 39.4494 16.7131C39.1743 16.902 38.8594 17.0362 38.5048 17.1158V17.2152C38.8926 17.2318 39.2555 17.3411 39.5936 17.5433C39.935 17.7455 40.2117 18.0289 40.4238 18.3935C40.6359 18.7547 40.742 19.1856 40.742 19.6861C40.742 20.2263 40.6078 20.7086 40.3393 21.1328C40.0742 21.5537 39.6814 21.8868 39.161 22.1321C38.6407 22.3774 37.9993 22.5 37.237 22.5H32.8869ZM35.0396 20.7401H36.7946C37.3945 20.7401 37.832 20.6257 38.1071 20.397C38.3822 20.165 38.5197 19.8568 38.5197 19.4723C38.5197 19.1906 38.4518 18.942 38.3159 18.7266C38.18 18.5111 37.9861 18.3421 37.7342 18.2195C37.4856 18.0968 37.189 18.0355 36.8443 18.0355H35.0396V20.7401ZM35.0396 16.5788H36.6355C36.9305 16.5788 37.1923 16.5275 37.421 16.4247C37.653 16.3187 37.8353 16.1695 37.9679 15.9773C38.1038 15.785 38.1717 15.5547 38.1717 15.2862C38.1717 14.9183 38.0408 14.6217 37.7789 14.3963C37.5204 14.1709 37.1525 14.0582 36.6752 14.0582H35.0396V16.5788ZM48.4318 12.3182H50.5845V18.9304C50.5845 19.6728 50.4072 20.3224 50.0526 20.8793C49.7012 21.4361 49.209 21.8703 48.576 22.1818C47.9429 22.4901 47.2055 22.6442 46.3636 22.6442C45.5185 22.6442 44.7794 22.4901 44.1463 22.1818C43.5133 21.8703 43.0211 21.4361 42.6697 20.8793C42.3184 20.3224 42.1428 19.6728 42.1428 18.9304V12.3182H44.2955V18.7464C44.2955 19.1342 44.38 19.4789 44.549 19.7805C44.7214 20.0821 44.9633 20.3191 45.2749 20.4915C45.5864 20.6638 45.9493 20.75 46.3636 20.75C46.7813 20.75 47.1442 20.6638 47.4524 20.4915C47.764 20.3191 48.0043 20.0821 48.1733 19.7805C48.3456 19.4789 48.4318 19.1342 48.4318 18.7464V12.3182ZM59.1071 15.6094C59.0375 15.3674 58.9397 15.1536 58.8137 14.968C58.6878 14.7791 58.5337 14.62 58.3514 14.4908C58.1724 14.3582 57.9669 14.2571 57.7349 14.1875C57.5062 14.1179 57.2527 14.0831 56.9743 14.0831C56.4539 14.0831 55.9965 14.2124 55.6021 14.4709C55.211 14.7294 54.9061 15.1056 54.6873 15.5994C54.4686 16.09 54.3592 16.6899 54.3592 17.3991C54.3592 18.1084 54.4669 18.7116 54.6824 19.2088C54.8978 19.706 55.2027 20.0855 55.5971 20.3473C55.9915 20.6058 56.4572 20.7351 56.9941 20.7351C57.4814 20.7351 57.8973 20.6489 58.242 20.4766C58.59 20.3009 58.8552 20.054 59.0375 19.7358C59.2231 19.4176 59.3159 19.0414 59.3159 18.6072L59.7534 18.6719H57.1284V17.0511H61.389V18.3338C61.389 19.2287 61.2001 19.9976 60.8223 20.6406C60.4444 21.2803 59.9241 21.7741 59.2612 22.1222C58.5983 22.4669 57.8393 22.6392 56.9842 22.6392C56.0297 22.6392 55.1911 22.4287 54.4686 22.0078C53.746 21.5836 53.1826 20.982 52.7782 20.2031C52.3772 19.4209 52.1767 18.4929 52.1767 17.419C52.1767 16.5937 52.296 15.858 52.5346 15.2116C52.7766 14.562 53.1146 14.0118 53.5488 13.5611C53.983 13.1103 54.4885 12.7673 55.0652 12.532C55.6419 12.2966 56.2666 12.179 56.9395 12.179C57.5162 12.179 58.0531 12.2635 58.5502 12.4325C59.0474 12.5982 59.4882 12.8336 59.8727 13.1385C60.2605 13.4434 60.577 13.8063 60.8223 14.2273C61.0675 14.6449 61.225 15.1056 61.2946 15.6094H59.1071ZM75.2299 15.8828H73.0524C73.0126 15.6011 72.9314 15.3509 72.8088 15.1321C72.6861 14.91 72.5287 14.7211 72.3365 14.5653C72.1442 14.4096 71.9222 14.2902 71.6703 14.2074C71.4217 14.1245 71.1516 14.0831 70.8599 14.0831C70.3329 14.0831 69.8739 14.214 69.4828 14.4759C69.0917 14.7344 68.7884 15.1122 68.573 15.6094C68.3575 16.1032 68.2498 16.7031 68.2498 17.4091C68.2498 18.1349 68.3575 18.7448 68.573 19.2386C68.7917 19.7325 69.0967 20.1054 69.4877 20.3572C69.8788 20.6091 70.3313 20.7351 70.845 20.7351C71.1333 20.7351 71.4002 20.697 71.6454 20.6207C71.894 20.5445 72.1144 20.4335 72.3066 20.2876C72.4989 20.1385 72.658 19.9579 72.7839 19.7457C72.9132 19.5336 73.0027 19.2917 73.0524 19.0199L75.2299 19.0298C75.1736 19.4972 75.0327 19.9479 74.8074 20.3821C74.5853 20.813 74.2853 21.1991 73.9075 21.5405C73.533 21.8786 73.0855 22.147 72.5652 22.3459C72.0481 22.5414 71.4631 22.6392 70.8102 22.6392C69.902 22.6392 69.09 22.4337 68.3741 22.0227C67.6615 21.6117 67.0981 21.0168 66.6838 20.2379C66.2728 19.459 66.0673 18.5161 66.0673 17.4091C66.0673 16.2988 66.2761 15.3542 66.6937 14.5753C67.1113 13.7964 67.6781 13.2031 68.394 12.7955C69.1099 12.3845 69.9153 12.179 70.8102 12.179C71.4002 12.179 71.947 12.2618 72.4508 12.4276C72.9579 12.5933 73.407 12.8352 73.7981 13.1534C74.1892 13.4683 74.5074 13.8544 74.7527 14.3118C75.0012 14.7692 75.1603 15.2929 75.2299 15.8828ZM80.1841 22.6491C79.4119 22.6491 78.744 22.4851 78.1806 22.157C77.6204 21.8255 77.1879 21.3648 76.883 20.7749C76.5781 20.1816 76.4256 19.4938 76.4256 18.7116C76.4256 17.9228 76.5781 17.2334 76.883 16.6435C77.1879 16.0502 77.6204 15.5895 78.1806 15.2614C78.744 14.9299 79.4119 14.7642 80.1841 14.7642C80.9564 14.7642 81.6226 14.9299 82.1827 15.2614C82.7462 15.5895 83.1803 16.0502 83.4853 16.6435C83.7902 17.2334 83.9426 17.9228 83.9426 18.7116C83.9426 19.4938 83.7902 20.1816 83.4853 20.7749C83.1803 21.3648 82.7462 21.8255 82.1827 22.157C81.6226 22.4851 80.9564 22.6491 80.1841 22.6491ZM80.1941 21.0085C80.5454 21.0085 80.8387 20.9091 81.074 20.7102C81.3094 20.508 81.4867 20.233 81.606 19.8849C81.7286 19.5369 81.79 19.1409 81.79 18.6967C81.79 18.2526 81.7286 17.8565 81.606 17.5085C81.4867 17.1605 81.3094 16.8854 81.074 16.6832C80.8387 16.4811 80.5454 16.38 80.1941 16.38C79.8394 16.38 79.5411 16.4811 79.2992 16.6832C79.0605 16.8854 78.8799 17.1605 78.7573 17.5085C78.638 17.8565 78.5783 18.2526 78.5783 18.6967C78.5783 19.1409 78.638 19.5369 78.7573 19.8849C78.8799 20.233 79.0605 20.508 79.2992 20.7102C79.5411 20.9091 79.8394 21.0085 80.1941 21.0085ZM85.3198 22.5V14.8636H87.4377V22.5H85.3198ZM86.3837 13.8793C86.0688 13.8793 85.7987 13.7749 85.5733 13.5661C85.3513 13.3539 85.2402 13.1004 85.2402 12.8054C85.2402 12.5137 85.3513 12.2635 85.5733 12.0547C85.7987 11.8426 86.0688 11.7365 86.3837 11.7365C86.6986 11.7365 86.967 11.8426 87.1891 12.0547C87.4145 12.2635 87.5272 12.5137 87.5272 12.8054C87.5272 13.1004 87.4145 13.3539 87.1891 13.5661C86.967 13.7749 86.6986 13.8793 86.3837 13.8793ZM91.2521 18.0852V22.5H89.1342V14.8636H91.1527V16.2109H91.2422C91.4112 15.7668 91.6946 15.4155 92.0923 15.157C92.4901 14.8951 92.9723 14.7642 93.5391 14.7642C94.0694 14.7642 94.5317 14.8802 94.9261 15.1122C95.3205 15.3442 95.6271 15.6757 95.8459 16.1065C96.0646 16.5341 96.174 17.0445 96.174 17.6378V22.5H94.0561V18.0156C94.0594 17.5483 93.9401 17.1837 93.6982 16.9219C93.4562 16.6567 93.1231 16.5241 92.6989 16.5241C92.4138 16.5241 92.1619 16.5855 91.9432 16.7081C91.7277 16.8307 91.5587 17.0097 91.4361 17.245C91.3168 17.477 91.2554 17.7571 91.2521 18.0852Z" fill="#344054"/>
</svg>
