<svg width="64" height="64" viewBox="0 0 64 64" fill="none" xmlns="http://www.w3.org/2000/svg">
<path d="M32 64C49.6731 64 64 49.6731 64 32C64 14.3269 49.6731 0 32 0C14.3269 0 0 14.3269 0 32C0 49.6731 14.3269 64 32 64Z" fill="url(#paint0_linear_839_6479)"/>
<path d="M32.3364 18.6083C36.9296 18.504 39.6681 20.9618 40.168 22.5929L45.7827 21.0139C44.8408 18.8987 41.6242 13.4096 32.532 13C15.3041 13 14 29.5939 14 31.2771C14 48.7722 26.6493 50.716 31.5612 50.9469C35.9443 51.1629 42.7036 50.6937 46 50.0085V28.8565H28.2287V34.7031H39.3276C39.3856 34.7031 39.429 34.7478 39.429 34.8074V45.0557C39.429 45.1152 39.3856 45.1748 39.3276 45.1972C39.3276 45.1972 36.5746 45.7558 32.6117 45.6217C31.0541 45.577 21.3027 45.1748 21.3027 32.0368C21.3027 23.5909 25.396 18.6827 32.3219 18.6083" fill="#FCFCFD"/>
<defs>
<linearGradient id="paint0_linear_839_6479" x1="7" y1="10" x2="52" y2="59" gradientUnits="userSpaceOnUse">
<stop stop-color="#E72E6B"/>
<stop offset="1" stop-color="#F3973D"/>
</linearGradient>
</defs>
</svg>
