<?xml version="1.0" encoding="utf-8"?>
<!-- Generator: Adobe Illustrator 27.1.1, SVG Export Plug-In . SVG Version: 6.00 Build 0)  -->
<svg version="1.1" id="圖層_1" xmlns="http://www.w3.org/2000/svg" xmlns:xlink="http://www.w3.org/1999/xlink" x="0px" y="0px"
	 viewBox="0 0 200 200" style="enable-background:new 0 0 200 200;" xml:space="preserve">
<style type="text/css">
	.st0{fill:#040000;}
	.st1{fill:#0D9EA8;}
	.st2{fill:url(#SVGID_1_);}
</style>
<g>
	<path class="st0" d="M100,199.5L100,199.5c-55.2,0-100-44.8-100-100v0c0-55.2,44.8-100,100-100h0c55.2,0,100,44.8,100,100v0
		C200,154.8,155.2,199.5,100,199.5z"/>
	<g>
		<g>
			<path class="st1" d="M100.1,163.8c-1.1,0-2.2-0.3-3.2-0.8l-50.2-28.6c-2-1.1-3.2-3.3-3.2-5.6v-58c0-2.3,1.2-4.4,3.2-5.6l50.2-29
				c2-1.2,4.5-1.2,6.5,0l24.3,13.7l-13.4,7.8l-14.2-8.5L56.3,74.4V125l43.8,25l43.6-24.9V81.9l-40.5,22c-2,1.1-4.5,1-6.5-0.2
				L75,90.2l12.5-7.3l12.8,8L147,65.5c2-1.1,4.4-1,6.4,0.1c1.9,1.2,3.1,3.3,3.1,5.5v57.6c0,2.3-1.2,4.4-3.2,5.6l-50,28.6
				C102.3,163.5,101.2,163.8,100.1,163.8z"/>
		</g>
		<g>
			<linearGradient id="SVGID_1_" gradientUnits="userSpaceOnUse" x1="9.6366" y1="164.668" x2="112.6576" y2="21.6305">
				<stop  offset="0.2525" style="stop-color:#0D9EA8"/>
				<stop  offset="0.2961" style="stop-color:#22979A"/>
				<stop  offset="0.5998" style="stop-color:#B0693C"/>
				<stop  offset="0.7323" style="stop-color:#E95616"/>
			</linearGradient>
			<path class="st2" d="M56.3,125V74.4l43.7-25.3l14.2,8.5l13.4-7.8l-24.3-13.7c-2-1.2-4.5-1.2-6.5,0l-50.2,29
				c-2,1.1-3.2,3.3-3.2,5.6v58c0,1.5,0.6,2.9,1.5,4L56.3,125z"/>
		</g>
	</g>
</g>
</svg>
