<svg width="56" height="35" viewBox="0 0 56 35" fill="none" xmlns="http://www.w3.org/2000/svg">
<path d="M56 9.12391V24.8197H52.9861V18.2523H46.0068V24.8197H42.9898V9.12391H46.0068V15.7644H52.9861V9.12391H56ZM22.3732 9.12391H21.0846L14.5359 24.8197H17.6995L22.3014 13.4832H22.4543L27.0094 24.8197H30.2167L23.6617 9.12391H22.3732V9.12391ZM29.7487 21.3692L29.7799 21.4486C29.9952 22.0205 31.2494 25.0231 35.3709 25.1851C41.9821 25.4425 41.8635 21.0991 41.8635 20.2063C41.8635 19.6185 41.5421 17.836 39.6171 16.8002C37.1399 15.4658 32.9217 15.6246 32.9217 13.0542C32.9217 12.2663 33.6112 11.1606 35.6548 11.1193C37.6328 11.0811 38.6718 12.3965 38.8122 13.1337L41.0742 12.4569C40.6717 11.5577 39.8137 9.0413 35.5518 9.0413C34.7157 9.0413 33.9544 9.13662 33.3086 9.35903C30.6598 10.2741 30.1793 12.3584 30.1824 13.3974C30.2198 19.4088 38.9838 17.8487 38.8839 20.953C38.8496 22.0904 37.7545 22.9896 35.555 22.8943C33.2743 22.799 32.4974 21.3724 32.1293 20.5399L29.7519 21.366L29.7487 21.3692ZM7.8966 11.3925C9.87464 11.348 11.054 12.3965 11.2693 13.0923L13.6872 12.4188C13.2816 11.5164 11.8964 9.17475 7.98083 9C0.561591 9 0 16.079 0 16.7971C0 24.2605 5.44743 25.0898 7.56276 25.1883C9.45033 25.2804 12.3612 25.0803 13.7808 24.7879V15.7644H6.12758V18.2586H10.9073C10.9323 18.2586 10.951 18.2777 10.951 18.3031V22.675C10.951 22.7005 10.9323 22.7259 10.9073 22.7354C10.9073 22.7354 9.72177 22.9737 8.01515 22.9165C7.34436 22.8975 3.14491 22.7259 3.14491 17.1211C3.14491 13.5181 4.90768 11.4243 7.89036 11.3925" fill="#EB5183"/>
</svg>
