<svg width="36" height="36" viewBox="0 0 36 36" fill="none" xmlns="http://www.w3.org/2000/svg">
<path d="M5.99487 17.9809C5.99487 11.3576 11.3841 5.99336 18.0341 5.99536C24.6298 5.99536 30.0111 11.4087 30.0051 18.025C29.9981 24.6965 24.6068 30.0547 17.8627 29.9996C11.29 29.9564 5.99487 24.6163 5.99487 17.9809ZM13.4334 14.8081C13.1168 16.9232 13.1168 19.0737 13.4334 21.1888H22.5635C22.8807 19.0737 22.8807 16.9232 22.5635 14.8081H13.4334ZM13.7341 13.1901H22.2148C22.2115 13.1306 22.2028 13.0716 22.1887 13.0137C21.9402 12.2919 21.7268 11.5561 21.4312 10.8533C21.0303 9.904 20.4922 9.03486 19.7106 8.33914C18.7265 7.46098 17.6583 7.36173 16.6381 8.06146C16.4877 8.16597 16.345 8.28122 16.2112 8.40631C15.3023 9.24638 14.7462 10.311 14.3073 11.4458C14.0908 12.0102 13.9295 12.5946 13.7351 13.1921L13.7341 13.1901ZM13.7761 22.8138C13.7802 22.8733 13.7893 22.9323 13.8032 22.9903C14.0507 23.712 14.2652 24.4479 14.5598 25.1506C14.9606 26.0929 15.4877 26.955 16.2633 27.6458C16.7744 28.0999 17.3486 28.4267 18.0571 28.4046C18.7225 28.3836 19.2656 28.0668 19.7446 27.6317C20.6806 26.7806 21.2478 25.6919 21.6907 24.5331C21.9031 23.9777 22.0655 23.4033 22.2579 22.8138H13.7761ZM27.8796 21.1948C27.8947 21.1598 27.9097 21.1307 27.9197 21.0996C28.5517 19.102 28.5604 16.9592 27.9448 14.9565C27.9007 14.8071 27.8145 14.7961 27.6892 14.7971C26.7142 14.7971 25.7402 14.7971 24.7651 14.7971H24.1639C24.469 16.9184 24.469 19.0725 24.1639 21.1938L27.8796 21.1948ZM11.7649 14.8081C11.7347 14.8036 11.7043 14.8009 11.6738 14.8001C10.5414 14.8001 9.40901 14.8001 8.27564 14.7951C8.12232 14.7951 8.07522 14.8622 8.04315 14.9845C7.6251 16.3242 7.49466 17.7371 7.66036 19.1308C7.74654 19.8265 7.9189 20.5122 8.04917 21.1868H11.7629C11.7058 20.1162 11.6066 19.0616 11.6066 18.007C11.6066 16.9524 11.7068 15.8868 11.7649 14.8081ZM21.9442 8.38125L21.8981 8.42936L21.9903 8.57472C22.8644 9.92518 23.4883 11.422 23.8322 12.9936C23.8703 13.162 23.9324 13.2051 24.0917 13.2041C25.0748 13.1981 26.0578 13.2041 27.0409 13.2041C27.086 13.2041 27.1311 13.1991 27.2092 13.1931C25.9947 10.9526 24.247 9.36066 21.9442 8.38425V8.38125ZM21.8971 27.6427C24.251 26.6403 26.0057 25.0493 27.2163 22.8058C26.125 22.8058 25.0838 22.8058 24.0426 22.8058C23.8983 22.8058 23.8693 22.871 23.8422 22.9943C23.6367 23.9713 23.3137 24.9199 22.8802 25.8192C22.5846 26.4217 22.2449 27.0042 21.8971 27.6458V27.6427ZM14.0517 27.6217L14.0958 27.5726L14.0026 27.4282C13.1269 26.0789 12.5016 24.5827 12.1568 23.0113C12.1197 22.8409 12.0566 22.8018 11.8962 22.8028C10.9222 22.8088 9.94713 22.8028 8.9721 22.8028C8.91898 22.8028 8.87188 22.8108 8.7827 22.8168C10.0033 25.0584 11.7489 26.6483 14.0517 27.6247V27.6217ZM8.77368 13.2041C9.87599 13.2041 10.9332 13.2041 11.9894 13.1951C12.0435 13.1951 12.1277 13.0778 12.1447 13.0026C12.4969 11.4418 13.1204 9.95496 13.9866 8.60981C14.0257 8.54966 14.0587 8.48651 14.0938 8.42535C11.7499 9.35765 10.0033 10.9496 8.77368 13.2041Z" fill="#344054"/>
</svg>
