<svg width="69" height="35" viewBox="0 0 69 35" fill="none" xmlns="http://www.w3.org/2000/svg">
<path d="M51.151 21.908C52.165 22.493 53.465 23.377 54.063 23.962L55.298 23.091C54.609 22.48 53.283 21.661 52.295 21.128L51.151 21.908ZM45.158 18.034V19.217H53.842V18.034H45.158ZM43.611 19.763V20.998H55.402V19.763H43.611ZM43.793 12.392V13.614H55.142V12.392H43.793ZM48.707 19.984V22.636C48.707 22.779 48.668 22.818 48.486 22.818C48.317 22.831 47.732 22.831 47.225 22.805C47.407 23.182 47.628 23.767 47.693 24.183C48.551 24.183 49.175 24.17 49.669 23.949C50.176 23.741 50.293 23.377 50.293 22.688V19.984H48.707ZM46.198 21.102C45.587 21.856 44.534 22.61 43.52 23.078C43.858 23.312 44.43 23.832 44.69 24.105C45.704 23.52 46.887 22.558 47.628 21.596L46.198 21.102ZM46.003 15.421H52.919V16.383H46.003V15.421ZM44.56 14.303V17.514H54.466V14.303H44.56ZM47.303 12.86V17.059H48.733V12.86H47.303ZM50.098 12.86V17.059H51.554V12.86H50.098ZM56.624 16.513V17.93H68.337V16.513H56.624ZM57.482 14.108V15.473H67.609V14.108H57.482ZM58.873 19.022V20.426H64.996V19.022H58.873ZM64.294 14.719L62.903 15.083C63.813 17.748 65.334 19.854 67.635 20.959C67.843 20.569 68.311 19.971 68.662 19.685C66.543 18.801 65.022 16.916 64.294 14.719ZM58.093 12.574C58.47 13.172 58.873 13.965 59.003 14.472L60.394 13.952C60.225 13.432 59.796 12.665 59.393 12.106L58.093 12.574ZM65.204 12.041C64.983 12.652 64.554 13.497 64.216 14.03L65.555 14.459C65.906 13.978 66.348 13.237 66.751 12.496L65.204 12.041ZM64.58 19.022V19.243C64.463 21.466 64.307 22.363 64.086 22.584C63.956 22.714 63.826 22.74 63.618 22.74C63.358 22.74 62.812 22.727 62.24 22.675C62.487 23.078 62.669 23.689 62.695 24.144C63.371 24.157 64.008 24.157 64.385 24.118C64.814 24.053 65.126 23.949 65.425 23.598C65.789 23.195 65.984 22.103 66.14 19.62C66.166 19.425 66.179 19.022 66.179 19.022H64.58ZM60.979 19.49C60.771 21.128 60.381 22.259 57.521 22.857C57.846 23.169 58.249 23.806 58.392 24.196C61.707 23.338 62.344 21.752 62.604 19.49H60.979ZM61.473 11.924C60.914 15.148 59.536 18.19 56.299 19.685C56.611 19.997 57.053 20.582 57.274 20.946C60.784 19.204 62.292 15.876 63.124 12.21L61.473 11.924Z" fill="#344054"/>
<g clip-path="url(#clip0_3298_47793)">
<path d="M33.0684 11.8664C32.9903 10.7728 32.4528 10.2439 29.7329 10.2212L7.82739 11.8437C7.01632 11.9053 6.12707 11.993 5.54726 12.4538C4.96746 12.9145 4.53097 13.6349 4.57006 14.2904C4.66778 15.6825 4.74922 17.0422 4.82739 18.3856C5.28028 18.4415 5.71048 18.615 6.07495 18.8886C6.4636 19.1645 6.73438 19.5755 6.8339 20.0405C6.85733 20.2698 6.83234 20.5014 6.76053 20.7205C6.68873 20.9396 6.5717 21.1413 6.41697 21.3126C6.06627 21.7168 5.61779 22.025 5.11403 22.2082L5.04889 22.2309C5.14335 23.6457 5.24759 25.0541 5.37463 26.4786C5.36977 26.9159 5.5171 27.3413 5.79156 27.6825C6.44303 28.3737 7.82739 28.1725 8.96746 28.0914C16.6841 27.5462 23.6548 27.0627 30.2932 26.5954C31.3453 26.5208 32.557 26.5727 33.2443 25.9464C33.7688 25.4662 33.8046 24.7945 33.8144 24.1812C33.8828 20.9784 33.1434 13.1255 33.0684 11.8664Z" fill="white"/>
<path d="M7.4854 28.3607C6.77855 28.3607 6.11732 28.2504 5.69713 27.8091C5.39899 27.4415 5.2358 26.9836 5.23458 26.5111C5.11406 25.252 5.00983 23.9151 4.90885 22.2601C4.90562 22.2258 4.91417 22.1914 4.9331 22.1625C4.95203 22.1336 4.98022 22.112 5.01308 22.1011H5.0424H5.07171C5.54864 21.9296 5.97207 21.6364 6.29973 21.2509C6.44384 21.0955 6.55274 20.9111 6.61905 20.7101C6.68537 20.5091 6.70755 20.2963 6.6841 20.086C6.59356 19.6586 6.34318 19.2815 5.98377 19.0314C5.64282 18.776 5.24085 18.6139 4.81765 18.5608C4.78016 18.5569 4.74534 18.5397 4.71961 18.5123C4.69387 18.4848 4.67895 18.4491 4.67758 18.4116C4.60266 17.1136 4.51797 15.7442 4.41699 14.3196C4.42151 13.933 4.51699 13.5528 4.69576 13.2096C4.87452 12.8664 5.13159 12.5697 5.44631 12.3434C6.03915 11.8697 6.90234 11.7691 7.80788 11.6944L29.7134 10.0557C32.2639 10.0719 33.1141 10.5067 33.2118 11.8502C33.2281 12.0838 33.2639 12.5381 33.3193 13.1676C33.5505 15.8934 34.0294 21.5657 33.9903 24.2006C33.9903 24.7296 33.9707 25.5311 33.3714 26.0827C32.772 26.6344 31.772 26.7025 30.8242 26.7512L30.3225 26.7772L20.404 27.4748L9.00331 28.2764L8.62221 28.3056C8.24762 28.3283 7.85999 28.3607 7.4854 28.3607ZM5.23133 22.3575C5.33556 23.9378 5.4398 25.252 5.55706 26.4786C5.55103 26.8803 5.68322 27.272 5.93165 27.5884C6.46911 28.1466 7.59614 28.0557 8.59289 27.9778L8.97726 27.9454L20.3779 27.1471L30.2932 26.4494L30.8046 26.4202C31.6939 26.3748 32.6124 26.3294 33.1499 25.8361C33.6092 25.4143 33.6548 24.8172 33.6645 24.1877C33.7036 21.5917 33.2248 15.9227 32.9935 13.2001C32.9382 12.5706 32.8991 12.113 32.8828 11.8794C32.8209 11.0162 32.5571 10.4029 29.7134 10.3834L7.81765 12.0059C6.96423 12.0708 6.15315 12.1617 5.63197 12.5771C5.35802 12.7711 5.13325 13.0262 4.97549 13.3219C4.81774 13.6176 4.73135 13.9459 4.72318 14.2807C4.82416 15.6598 4.90233 16.9935 4.97725 18.2461C5.40869 18.3209 5.81615 18.4966 6.16618 18.7588C6.58878 19.0595 6.88192 19.5079 6.98702 20.0146C7.01575 20.2664 6.99022 20.5214 6.91214 20.7626C6.83406 21.0037 6.70524 21.2256 6.53426 21.4132C6.18618 21.8317 5.73817 22.1564 5.23133 22.3575Z" fill="black"/>
<path d="M27.0782 6.2331C26.7102 5.1947 26.0522 4.82152 23.4235 5.5192L2.72644 12.8399C1.96097 13.1125 1.12709 13.4305 0.69387 14.0243C0.465852 14.3037 0.306714 14.6323 0.229217 14.9839C0.15172 15.3356 0.158021 15.7004 0.247617 16.0492C0.710158 17.3667 1.1499 18.6452 1.57986 19.9432C2.03103 19.8768 2.49181 19.9305 2.91537 20.099C3.36399 20.2645 3.7345 20.5908 3.95445 21.0141C4.03798 21.2285 4.07534 21.4581 4.06411 21.6878C4.05289 21.9176 3.99334 22.1424 3.88931 22.3478C3.66021 22.8285 3.31287 23.2437 2.87954 23.5549L2.82416 23.5906C3.2867 24.9308 3.76227 26.2645 4.27042 27.5982C4.38011 28.0223 4.63464 28.3952 4.99029 28.6528C5.81765 29.146 7.08475 28.5911 8.16293 28.2147L28.3388 21.1828C29.3356 20.8356 30.518 20.5663 31.0131 19.7745C31.3909 19.1774 31.2476 18.5187 31.0945 17.9248C30.29 14.8031 27.4952 7.4305 27.0782 6.2331Z" fill="white"/>
<path d="M5.7785 29C5.47404 29.0086 5.17309 28.9334 4.9088 28.7826C4.52153 28.5061 4.24193 28.1049 4.11726 27.6468C3.66775 26.4624 3.20521 25.1871 2.67101 23.636C2.65893 23.6031 2.65813 23.567 2.66874 23.5336C2.67934 23.5001 2.70076 23.4711 2.72964 23.4511L2.75244 23.4348L2.78176 23.4154C3.19304 23.1217 3.52259 22.7286 3.73942 22.2731C3.83494 22.089 3.8904 21.887 3.90219 21.6801C3.91398 21.4732 3.88182 21.2661 3.80782 21.0725C3.60651 20.6846 3.26566 20.3868 2.85342 20.2385C2.45669 20.0809 2.02518 20.0305 1.60261 20.0925C1.56539 20.0976 1.52755 20.0897 1.49549 20.0702C1.46343 20.0507 1.43913 20.0207 1.42671 19.9854C1.01303 18.7588 0.570035 17.4478 0.0944652 16.0914C-0.00452042 15.7173 -0.0136383 15.3252 0.0678542 14.9469C0.149347 14.5686 0.319158 14.2147 0.563521 13.914C1.00978 13.3007 1.81433 12.9795 2.67101 12.6777L23.3681 5.35371C25.8339 4.70471 26.7687 4.8994 27.215 6.16819C27.2932 6.38885 27.4528 6.8172 27.671 7.41103C28.6156 9.98107 30.5798 15.3256 31.2378 17.8632C31.3713 18.3791 31.5635 19.1612 31.1368 19.8426C30.7101 20.5241 29.759 20.8615 28.8567 21.1406L28.3779 21.3029L19.0326 24.5479L8.20196 28.325L7.83714 28.4548C7.18499 28.7461 6.48977 28.9302 5.7785 29ZM3.01629 23.6555C3.53421 25.1547 3.99349 26.391 4.4202 27.5495C4.51824 27.9391 4.74837 28.283 5.07166 28.523C5.73941 28.9254 6.80456 28.5425 7.74267 28.1985L8.10749 28.0687L18.9381 24.2948L28.2834 21.0498C28.4397 20.9946 28.6091 20.9394 28.7687 20.8875C29.6124 20.6117 30.4853 20.3261 30.873 19.7096C31.1987 19.1839 31.0912 18.5933 30.9349 17.9832C30.2834 15.4619 28.329 10.1238 27.3746 7.5603C27.1564 6.96647 27 6.53813 26.9218 6.31422C26.6319 5.49648 26.215 4.97729 23.4658 5.70092L2.77525 12.9924C1.96743 13.278 1.21173 13.5798 0.820848 14.1184C0.607934 14.3769 0.45874 14.6815 0.385207 15.0078C0.311675 15.334 0.315847 15.6729 0.397394 15.9973C0.856678 17.2953 1.28665 18.5673 1.70033 19.7582C2.13654 19.7164 2.57648 19.7787 2.98371 19.94C3.47071 20.1195 3.87194 20.4752 4.10749 20.9362C4.20166 21.1713 4.24456 21.4237 4.23333 21.6765C4.22209 21.9294 4.15699 22.177 4.04235 22.4029C3.81188 22.9 3.45891 23.3309 3.01629 23.6555Z" fill="black"/>
<path d="M14.1759 25.7777C14.0652 25.4824 13.9414 25.1904 13.8502 24.8951C13.6352 24.3207 13.3974 23.7528 13.1987 23.1752C12.4496 21.0952 11.6873 19.0216 10.9544 16.9351C10.2215 14.8486 9.52774 12.7718 8.8665 10.6755L2.74598 12.8399C1.9805 13.1125 1.14663 13.4305 0.713401 14.0243C0.485383 14.3037 0.326246 14.6323 0.248748 14.984C0.171251 15.3356 0.177553 15.7004 0.267148 16.0492C0.729689 17.3667 1.16943 18.6452 1.59939 19.9432C2.05056 19.8768 2.51134 19.9305 2.9349 20.099C3.38352 20.2645 3.75403 20.5908 3.97399 21.0141C4.05751 21.2285 4.09487 21.4581 4.08364 21.6878C4.07242 21.9176 4.01287 22.1424 3.90884 22.3478C3.67974 22.8285 3.3324 23.2437 2.89907 23.5549L2.8437 23.5906C3.30624 24.9308 3.7818 26.2645 4.28995 27.5982C4.39964 28.0224 4.65417 28.3952 5.00982 28.6528C5.83718 29.146 7.10428 28.5911 8.18246 28.2147L14.3095 26.0795L14.1759 25.7777Z" fill="url(#paint0_linear_3298_47793)"/>
<path d="M5.7785 29C5.47404 29.0087 5.17309 28.9334 4.9088 28.7826C4.52153 28.5061 4.24193 28.105 4.11726 27.6468C3.66775 26.4624 3.20521 25.1871 2.67101 23.636C2.65893 23.6031 2.65813 23.5671 2.66874 23.5336C2.67934 23.5002 2.70076 23.4711 2.72964 23.4511L2.75244 23.4348L2.78176 23.4154C3.19304 23.1217 3.52259 22.7286 3.73942 22.2731C3.83494 22.0891 3.8904 21.887 3.90219 21.6801C3.91398 21.4732 3.88182 21.2662 3.80782 21.0725C3.60651 20.6846 3.26566 20.3868 2.85342 20.2385C2.45669 20.0809 2.02518 20.0305 1.60261 20.0925C1.56539 20.0976 1.52755 20.0897 1.49549 20.0702C1.46343 20.0507 1.43913 20.0207 1.42671 19.9854C1.01303 18.7588 0.570035 17.4478 0.0944652 16.0914C-0.00452042 15.7173 -0.0136383 15.3252 0.0678542 14.9469C0.149347 14.5686 0.319158 14.2148 0.563521 13.914C1.00978 13.3007 1.81433 12.9795 2.67101 12.6777L8.79153 10.51C8.83234 10.4939 8.87776 10.4939 8.91856 10.51C8.93789 10.5193 8.9551 10.5325 8.96911 10.5486C8.98312 10.5648 8.99363 10.5837 9 10.6041C9.67752 12.7491 10.3778 14.8518 11.0879 16.8572C11.6417 18.4343 12.2215 20.0341 12.7818 21.5787C12.9642 22.0849 13.1498 22.5912 13.3323 23.1006C13.4463 23.4251 13.5733 23.7496 13.6938 24.0449C13.7915 24.298 13.8958 24.5576 13.9902 24.8172C14.0489 24.9697 14.1075 25.1222 14.1694 25.278C14.2313 25.4338 14.2801 25.5571 14.3323 25.6999C14.3844 25.8426 14.4039 25.8913 14.443 25.9887C14.4593 26.0282 14.4593 26.0725 14.443 26.112C14.4238 26.152 14.39 26.1834 14.3485 26.1996L8.2215 28.3348L7.85668 28.4646C7.19783 28.7546 6.49587 28.9354 5.7785 29ZM3.01629 23.6555C3.53421 25.1547 3.99349 26.391 4.4202 27.5495C4.51824 27.9391 4.74837 28.283 5.07166 28.523C5.73941 28.9254 6.80456 28.5425 7.74267 28.1985L8.10749 28.0687L14.0782 25.9854C14.0586 25.9432 14.0424 25.8978 14.0261 25.8524C13.9739 25.7128 13.9186 25.5733 13.8632 25.4338L13.6873 24.9535C13.5928 24.6972 13.4919 24.4408 13.3909 24.1877C13.2704 23.8632 13.1433 23.5549 13.0293 23.2337L12.4756 21.715C11.9153 20.1671 11.3355 18.5706 10.7818 16.9903C10.0912 15.0433 9.40391 12.9795 8.74267 10.8864L2.78176 12.9957C1.97394 13.2812 1.21824 13.583 0.827364 14.1217C0.61445 14.3802 0.465251 14.6848 0.391718 15.011C0.318186 15.3373 0.322363 15.6762 0.40391 16.0006C0.863194 17.2986 1.29316 18.5706 1.70684 19.7615C2.14305 19.7197 2.58299 19.782 2.99023 19.9432C3.47722 20.1227 3.87846 20.4784 4.11401 20.9394C4.20818 21.1745 4.25107 21.4269 4.23984 21.6798C4.22861 21.9327 4.16351 22.1803 4.04886 22.4062C3.8161 22.9028 3.46087 23.3326 3.01629 23.6555Z" fill="black"/>
<path d="M19.114 19.8945H19.0684C19.0275 19.8818 18.9933 19.8536 18.9732 19.8159C18.9531 19.7782 18.9487 19.7342 18.9609 19.6933L21.6221 10.5879C21.6349 10.5471 21.6631 10.5128 21.7008 10.4922C21.7384 10.4716 21.7826 10.4664 21.8241 10.4776C21.8446 10.4835 21.8638 10.4934 21.8804 10.5068C21.8971 10.5201 21.911 10.5366 21.9213 10.5553C21.9316 10.574 21.938 10.5945 21.9404 10.6157C21.9427 10.6368 21.9408 10.6583 21.9348 10.6787L19.2703 19.7842C19.2598 19.817 19.2388 19.8454 19.2106 19.8653C19.1824 19.8852 19.1485 19.8955 19.114 19.8945Z" fill="black"/>
<path d="M17.7101 14.6961C17.5441 14.6968 17.3798 14.6625 17.2281 14.5955C17.0552 14.5165 16.9006 14.4028 16.774 14.2615C16.6473 14.1202 16.5513 13.9544 16.4919 13.7745C16.2737 13.1255 16.2248 12.3337 16.7492 11.98C16.9245 11.8438 17.1324 11.7557 17.3524 11.7244C17.5724 11.6931 17.7968 11.7197 18.0033 11.8015C18.2452 11.9188 18.4582 12.0878 18.6271 12.2965C18.796 12.5051 18.9167 12.7483 18.9805 13.0087C19.0391 13.3332 19.1955 14.1704 18.2899 14.5663C18.1081 14.6501 17.9105 14.6943 17.7101 14.6961ZM17.5505 12.0319C17.3267 12.0394 17.1107 12.1153 16.9316 12.2493C16.4398 12.5738 16.7623 13.5473 16.7981 13.6674C16.8427 13.8056 16.9155 13.9332 17.0119 14.042C17.1083 14.1509 17.2263 14.2388 17.3583 14.3002C17.4864 14.352 17.624 14.3763 17.7621 14.3712C17.9003 14.3662 18.0358 14.332 18.1597 14.271C18.7492 14.0114 18.7492 13.5408 18.6613 13.0671C18.6079 12.8583 18.5103 12.6634 18.3749 12.4954C18.2394 12.3275 18.0694 12.1905 17.8763 12.0936C17.7727 12.0523 17.6621 12.0314 17.5505 12.0319Z" fill="black"/>
<path d="M23.4463 18.4927C23.2793 18.4919 23.1143 18.4577 22.9609 18.3921C22.7885 18.3122 22.6344 18.1978 22.5083 18.056C22.3822 17.9142 22.2868 17.748 22.228 17.5679C22.0065 16.9351 21.9609 16.1303 22.4821 15.7766C22.6572 15.6402 22.865 15.5517 23.0849 15.5198C23.3048 15.488 23.5293 15.5138 23.7362 15.5949C23.9779 15.7133 24.1907 15.883 24.3595 16.0921C24.5284 16.3012 24.6491 16.5447 24.7134 16.8053C24.7753 17.1298 24.9316 17.9638 24.0261 18.3629C23.8437 18.4452 23.6464 18.4894 23.4463 18.4927ZM23.2866 15.8285C23.0623 15.8359 22.8455 15.9105 22.6645 16.0427C22.1759 16.3672 22.4951 17.3407 22.5342 17.464C22.5786 17.6019 22.651 17.7291 22.7468 17.838C22.8426 17.9468 22.9598 18.0349 23.0912 18.0968C23.2199 18.1481 23.358 18.1721 23.4966 18.167C23.6352 18.162 23.7711 18.1281 23.8958 18.0676C24.4853 17.808 24.4853 17.3375 24.3974 16.8637C24.3441 16.6549 24.2464 16.46 24.111 16.2921C23.9755 16.1241 23.8055 15.9871 23.6124 15.8902C23.5118 15.8505 23.4047 15.8296 23.2964 15.8285H23.2866Z" fill="black"/>
<path d="M7.44626 25.4564C7.43505 25.4561 7.42419 25.4525 7.41495 25.4462C7.40572 25.4399 7.39849 25.431 7.39414 25.4208C7.38971 25.407 7.39059 25.392 7.39661 25.3788C7.40263 25.3656 7.41336 25.3551 7.42671 25.3494L11.0391 24.1065C11.0529 24.1024 11.0678 24.1039 11.0806 24.1105C11.0933 24.1172 11.103 24.1286 11.1075 24.1422C11.1118 24.1556 11.1108 24.1701 11.1047 24.1827C11.0987 24.1954 11.088 24.2053 11.0749 24.2104L7.46255 25.4532L7.44626 25.4564Z" fill="black"/>
<path d="M7.61895 23.7528C7.60753 23.7534 7.59625 23.7502 7.58683 23.7438C7.57741 23.7373 7.57039 23.728 7.56683 23.7171C7.56255 23.7038 7.56354 23.6893 7.56959 23.6766C7.57564 23.664 7.5863 23.6541 7.5994 23.649L10.531 22.6463C10.5444 22.6416 10.5591 22.6423 10.5719 22.6484C10.5848 22.6545 10.5946 22.6654 10.5994 22.6787C10.6042 22.6921 10.6034 22.7068 10.5973 22.7195C10.5912 22.7323 10.5802 22.7422 10.5668 22.7469L7.63524 23.7496L7.61895 23.7528Z" fill="black"/>
<path d="M6.13033 22.6301C6.11913 22.6297 6.10827 22.6261 6.09903 22.6198C6.08979 22.6135 6.08258 22.6047 6.07822 22.5944C6.0738 22.5806 6.07467 22.5656 6.08069 22.5524C6.08671 22.5392 6.09744 22.5287 6.11079 22.523L10.0196 21.1828C10.0262 21.1802 10.0333 21.1791 10.0404 21.1793C10.0474 21.1796 10.0544 21.1813 10.0608 21.1843C10.0672 21.1874 10.0729 21.1917 10.0776 21.197C10.0823 21.2023 10.0858 21.2085 10.088 21.2152C10.0923 21.2286 10.0913 21.2431 10.0852 21.2557C10.0792 21.2684 10.0685 21.2783 10.0554 21.2834L6.14663 22.6268L6.13033 22.6301Z" fill="black"/>
<path d="M5.09771 19.7031C5.0864 19.7031 5.07534 19.6997 5.06603 19.6934C5.05671 19.687 5.04958 19.6779 5.04559 19.6674C5.04131 19.654 5.0423 19.6395 5.04835 19.6269C5.0544 19.6142 5.06506 19.6043 5.07817 19.5992L8.98696 18.2558C9.00034 18.2526 9.01442 18.2545 9.02646 18.2611C9.03851 18.2678 9.04766 18.2786 9.05213 18.2915C9.0566 18.3045 9.05607 18.3186 9.05065 18.3312C9.04523 18.3438 9.03529 18.3539 9.02279 18.3596L5.11399 19.6998L5.09771 19.7031Z" fill="black"/>
<path d="M3.55047 15.3158C3.53905 15.3164 3.52777 15.3132 3.51835 15.3068C3.50893 15.3003 3.50191 15.291 3.49835 15.2802C3.49407 15.2668 3.49506 15.2523 3.50111 15.2397C3.50716 15.227 3.51782 15.2171 3.53092 15.212L7.43972 13.8686C7.45313 13.8643 7.46766 13.8653 7.48037 13.8713C7.49307 13.8774 7.50299 13.888 7.50812 13.901C7.5124 13.9144 7.51142 13.9289 7.50537 13.9415C7.49932 13.9542 7.48865 13.9641 7.47554 13.9692L3.56675 15.3126L3.55047 15.3158Z" fill="black"/>
<path d="M5.05535 18.0708C5.04394 18.0714 5.03265 18.0682 5.02324 18.0618C5.01382 18.0553 5.00679 18.046 5.00323 18.0351C4.99895 18.0218 4.99994 18.0073 5.00599 17.9946C5.01204 17.982 5.0227 17.9721 5.03581 17.967L8.44623 16.7955C8.45285 16.793 8.45991 16.7918 8.467 16.7921C8.47408 16.7924 8.48105 16.7941 8.48745 16.7971C8.49386 16.8001 8.49957 16.8044 8.50424 16.8098C8.50892 16.8151 8.51245 16.8213 8.51463 16.828C8.51874 16.8418 8.5173 16.8566 8.51061 16.8693C8.50392 16.882 8.49251 16.8917 8.47881 16.8962L5.07163 18.0676L5.05535 18.0708Z" fill="black"/>
<path d="M6.58636 20.8258C6.57494 20.8264 6.56366 20.8232 6.55424 20.8168C6.54482 20.8103 6.5378 20.801 6.53424 20.7901C6.52996 20.7768 6.53094 20.7623 6.53699 20.7497C6.54304 20.737 6.55371 20.7271 6.56681 20.722L9.49841 19.7193C9.51227 19.7149 9.52728 19.7158 9.54052 19.7218C9.55376 19.7278 9.56429 19.7384 9.57006 19.7517C9.57257 19.7585 9.57362 19.7658 9.57314 19.773C9.57267 19.7803 9.57068 19.7873 9.56731 19.7937C9.56393 19.8001 9.55925 19.8058 9.55355 19.8103C9.54786 19.8148 9.54128 19.8181 9.53424 19.8199L6.60264 20.8226L6.58636 20.8258Z" fill="black"/>
<path d="M5.05535 16.4386C5.04394 16.4392 5.03265 16.436 5.02324 16.4296C5.01382 16.4231 5.00679 16.4137 5.00323 16.4029C4.99895 16.3896 4.99994 16.3751 5.00599 16.3624C5.01204 16.3498 5.0227 16.3399 5.03581 16.3348L7.9674 15.3321C7.98079 15.3274 7.99552 15.3281 8.00835 15.3342C8.02118 15.3403 8.03105 15.3512 8.0358 15.3645C8.04056 15.3779 8.0398 15.3925 8.03369 15.4053C8.02758 15.4181 8.01662 15.4279 8.00323 15.4327L5.07163 16.4354L5.05535 16.4386Z" fill="black"/>
<path d="M33.0684 11.8664C32.9903 10.7728 32.4528 10.2439 29.7329 10.2212L7.82739 11.8437C7.01632 11.9053 6.12707 11.993 5.54726 12.4538C4.96746 12.9145 4.53097 13.6349 4.57006 14.2904C4.66778 15.6825 4.74922 17.0422 4.82739 18.3856C5.28028 18.4415 5.71048 18.615 6.07495 18.8886C6.4636 19.1645 6.73438 19.5755 6.8339 20.0405C6.85733 20.2698 6.83234 20.5014 6.76053 20.7205C6.68873 20.9396 6.5717 21.1413 6.41697 21.3126C6.06627 21.7168 5.61779 22.025 5.11403 22.2082L5.04889 22.2309C5.14335 23.6457 5.24759 25.0541 5.37463 26.4786C5.36977 26.9159 5.5171 27.3413 5.79156 27.6825C6.44303 28.3737 7.82739 28.1725 8.96746 28.0914C16.6841 27.5462 23.6548 27.0627 30.2932 26.5954C31.3453 26.5208 32.557 26.5727 33.2443 25.9464C33.7688 25.4662 33.8046 24.7945 33.8144 24.1812C33.8828 20.9784 33.1434 13.1255 33.0684 11.8664Z" fill="white"/>
<path d="M7.4854 28.3607C6.77855 28.3607 6.11732 28.2504 5.69713 27.8091C5.39899 27.4415 5.2358 26.9836 5.23458 26.5111C5.11406 25.252 5.00983 23.9151 4.90885 22.2601C4.90562 22.2258 4.91417 22.1914 4.9331 22.1625C4.95203 22.1336 4.98022 22.112 5.01308 22.1011H5.0424H5.07171C5.54864 21.9296 5.97207 21.6364 6.29973 21.2509C6.44384 21.0955 6.55274 20.9111 6.61905 20.7101C6.68537 20.5091 6.70755 20.2963 6.6841 20.086C6.59356 19.6586 6.34318 19.2815 5.98377 19.0314C5.64282 18.776 5.24085 18.6139 4.81765 18.5608C4.78016 18.5569 4.74534 18.5397 4.71961 18.5123C4.69387 18.4848 4.67895 18.4491 4.67758 18.4116C4.60266 17.1136 4.51797 15.7442 4.41699 14.3196C4.42151 13.933 4.51699 13.5528 4.69576 13.2096C4.87452 12.8664 5.13159 12.5697 5.44631 12.3434C6.03915 11.8697 6.90234 11.7691 7.80788 11.6944L29.7134 10.0557C32.2639 10.0719 33.1141 10.5067 33.2118 11.8502C33.2281 12.0838 33.2639 12.5381 33.3193 13.1676C33.5505 15.8934 34.0294 21.5657 33.9903 24.2006C33.9903 24.7296 33.9707 25.5311 33.3714 26.0827C32.772 26.6344 31.772 26.7025 30.8242 26.7512L30.3225 26.7772L20.404 27.4748L9.00331 28.2764L8.62221 28.3056C8.24762 28.3283 7.85999 28.3607 7.4854 28.3607ZM5.23133 22.3575C5.33556 23.9378 5.4398 25.252 5.55706 26.4786C5.55103 26.8803 5.68322 27.272 5.93165 27.5884C6.46911 28.1466 7.59614 28.0557 8.59289 27.9778L8.97726 27.9454L20.3779 27.1471L30.2932 26.4494L30.8046 26.4202C31.6939 26.3748 32.6124 26.3294 33.1499 25.8361C33.6092 25.4143 33.6548 24.8172 33.6645 24.1877C33.7036 21.5917 33.2248 15.9227 32.9935 13.2001C32.9382 12.5706 32.8991 12.113 32.8828 11.8794C32.8209 11.0162 32.5571 10.4029 29.7134 10.3834L7.81765 12.0059C6.96423 12.0708 6.15315 12.1617 5.63197 12.5771C5.35802 12.7711 5.13325 13.0262 4.97549 13.3219C4.81774 13.6176 4.73135 13.9459 4.72318 14.2807C4.82416 15.6598 4.90233 16.9935 4.97725 18.2461C5.40869 18.3209 5.81615 18.4966 6.16618 18.7588C6.58878 19.0595 6.88192 19.5079 6.98702 20.0146C7.01575 20.2664 6.99022 20.5214 6.91214 20.7626C6.83406 21.0037 6.70524 21.2256 6.53426 21.4132C6.18618 21.8317 5.73817 22.1564 5.23133 22.3575Z" fill="black"/>
<path d="M27.0782 6.2331C26.7102 5.1947 26.0522 4.82152 23.4235 5.5192L2.72644 12.8399C1.96097 13.1125 1.12709 13.4305 0.69387 14.0243C0.465852 14.3037 0.306714 14.6323 0.229217 14.9839C0.15172 15.3356 0.158021 15.7004 0.247617 16.0492C0.710158 17.3667 1.1499 18.6452 1.57986 19.9432C2.03103 19.8768 2.49181 19.9305 2.91537 20.099C3.36399 20.2645 3.7345 20.5908 3.95445 21.0141C4.03798 21.2285 4.07534 21.4581 4.06411 21.6878C4.05289 21.9176 3.99334 22.1424 3.88931 22.3478C3.66021 22.8285 3.31287 23.2437 2.87954 23.5549L2.82416 23.5906C3.2867 24.9308 3.76227 26.2645 4.27042 27.5982C4.38011 28.0223 4.63464 28.3952 4.99029 28.6528C5.81765 29.146 7.08475 28.5911 8.16293 28.2147L28.3388 21.1828C29.3356 20.8356 30.518 20.5663 31.0131 19.7745C31.3909 19.1774 31.2476 18.5187 31.0945 17.9248C30.29 14.8031 27.4952 7.4305 27.0782 6.2331Z" fill="white"/>
<path d="M5.7785 29C5.47404 29.0086 5.17309 28.9334 4.9088 28.7826C4.52153 28.5061 4.24193 28.1049 4.11726 27.6468C3.66775 26.4624 3.20521 25.1871 2.67101 23.636C2.65893 23.6031 2.65813 23.567 2.66874 23.5336C2.67934 23.5001 2.70076 23.4711 2.72964 23.4511L2.75244 23.4348L2.78176 23.4154C3.19304 23.1217 3.52259 22.7286 3.73942 22.2731C3.83494 22.089 3.8904 21.887 3.90219 21.6801C3.91398 21.4732 3.88182 21.2661 3.80782 21.0725C3.60651 20.6846 3.26566 20.3868 2.85342 20.2385C2.45669 20.0809 2.02518 20.0305 1.60261 20.0925C1.56539 20.0976 1.52755 20.0897 1.49549 20.0702C1.46343 20.0507 1.43913 20.0207 1.42671 19.9854C1.01303 18.7588 0.570035 17.4478 0.0944652 16.0914C-0.00452042 15.7173 -0.0136383 15.3252 0.0678542 14.9469C0.149347 14.5686 0.319158 14.2147 0.563521 13.914C1.00978 13.3007 1.81433 12.9795 2.67101 12.6777L23.3681 5.35371C25.8339 4.70471 26.7687 4.8994 27.215 6.16819C27.2932 6.38885 27.4528 6.8172 27.671 7.41103C28.6156 9.98107 30.5798 15.3256 31.2378 17.8632C31.3713 18.3791 31.5635 19.1612 31.1368 19.8426C30.7101 20.5241 29.759 20.8615 28.8567 21.1406L28.3779 21.3029L19.0326 24.5479L8.20196 28.325L7.83714 28.4548C7.18499 28.7461 6.48977 28.9302 5.7785 29ZM3.01629 23.6555C3.53421 25.1547 3.99349 26.391 4.4202 27.5495C4.51824 27.9391 4.74837 28.283 5.07166 28.523C5.73941 28.9254 6.80456 28.5425 7.74267 28.1985L8.10749 28.0687L18.9381 24.2948L28.2834 21.0498C28.4397 20.9946 28.6091 20.9394 28.7687 20.8875C29.6124 20.6117 30.4853 20.3261 30.873 19.7096C31.1987 19.1839 31.0912 18.5933 30.9349 17.9832C30.2834 15.4619 28.329 10.1238 27.3746 7.5603C27.1564 6.96647 27 6.53813 26.9218 6.31422C26.6319 5.49648 26.215 4.97729 23.4658 5.70092L2.77525 12.9924C1.96743 13.278 1.21173 13.5798 0.820848 14.1184C0.607934 14.3769 0.45874 14.6815 0.385207 15.0078C0.311675 15.334 0.315847 15.6729 0.397394 15.9973C0.856678 17.2953 1.28665 18.5673 1.70033 19.7582C2.13654 19.7164 2.57648 19.7787 2.98371 19.94C3.47071 20.1195 3.87194 20.4752 4.10749 20.9362C4.20166 21.1713 4.24456 21.4237 4.23333 21.6765C4.22209 21.9294 4.15699 22.177 4.04235 22.4029C3.81188 22.9 3.45891 23.3309 3.01629 23.6555Z" fill="black"/>
<path d="M14.1759 25.7777C14.0652 25.4824 13.9414 25.1904 13.8502 24.8951C13.6352 24.3207 13.3974 23.7528 13.1987 23.1752C12.4496 21.0952 11.6873 19.0216 10.9544 16.9351C10.2215 14.8486 9.52774 12.7718 8.8665 10.6755L2.74598 12.8399C1.9805 13.1125 1.14663 13.4305 0.713401 14.0243C0.485383 14.3037 0.326246 14.6323 0.248748 14.984C0.171251 15.3356 0.177553 15.7004 0.267148 16.0492C0.729689 17.3667 1.16943 18.6452 1.59939 19.9432C2.05056 19.8768 2.51134 19.9305 2.9349 20.099C3.38352 20.2645 3.75403 20.5908 3.97399 21.0141C4.05751 21.2285 4.09487 21.4581 4.08364 21.6878C4.07242 21.9176 4.01287 22.1424 3.90884 22.3478C3.67974 22.8285 3.3324 23.2437 2.89907 23.5549L2.8437 23.5906C3.30624 24.9308 3.7818 26.2645 4.28995 27.5982C4.39964 28.0224 4.65417 28.3952 5.00982 28.6528C5.83718 29.146 7.10428 28.5911 8.18246 28.2147L14.3095 26.0795L14.1759 25.7777Z" fill="url(#paint1_linear_3298_47793)"/>
<path d="M5.7785 29C5.47404 29.0087 5.17309 28.9334 4.9088 28.7826C4.52153 28.5061 4.24193 28.105 4.11726 27.6468C3.66775 26.4624 3.20521 25.1871 2.67101 23.636C2.65893 23.6031 2.65813 23.5671 2.66874 23.5336C2.67934 23.5002 2.70076 23.4711 2.72964 23.4511L2.75244 23.4348L2.78176 23.4154C3.19304 23.1217 3.52259 22.7286 3.73942 22.2731C3.83494 22.0891 3.8904 21.887 3.90219 21.6801C3.91398 21.4732 3.88182 21.2662 3.80782 21.0725C3.60651 20.6846 3.26566 20.3868 2.85342 20.2385C2.45669 20.0809 2.02518 20.0305 1.60261 20.0925C1.56539 20.0976 1.52755 20.0897 1.49549 20.0702C1.46343 20.0507 1.43913 20.0207 1.42671 19.9854C1.01303 18.7588 0.570035 17.4478 0.0944652 16.0914C-0.00452042 15.7173 -0.0136383 15.3252 0.0678542 14.9469C0.149347 14.5686 0.319158 14.2148 0.563521 13.914C1.00978 13.3007 1.81433 12.9795 2.67101 12.6777L8.79153 10.51C8.83234 10.4939 8.87776 10.4939 8.91856 10.51C8.93789 10.5193 8.9551 10.5325 8.96911 10.5486C8.98312 10.5648 8.99363 10.5837 9 10.6041C9.67752 12.7491 10.3778 14.8518 11.0879 16.8572C11.6417 18.4343 12.2215 20.0341 12.7818 21.5787C12.9642 22.0849 13.1498 22.5912 13.3323 23.1006C13.4463 23.4251 13.5733 23.7496 13.6938 24.0449C13.7915 24.298 13.8958 24.5576 13.9902 24.8172C14.0489 24.9697 14.1075 25.1222 14.1694 25.278C14.2313 25.4338 14.2801 25.5571 14.3323 25.6999C14.3844 25.8426 14.4039 25.8913 14.443 25.9887C14.4593 26.0282 14.4593 26.0725 14.443 26.112C14.4238 26.152 14.39 26.1834 14.3485 26.1996L8.2215 28.3348L7.85668 28.4646C7.19783 28.7546 6.49587 28.9354 5.7785 29ZM3.01629 23.6555C3.53421 25.1547 3.99349 26.391 4.4202 27.5495C4.51824 27.9391 4.74837 28.283 5.07166 28.523C5.73941 28.9254 6.80456 28.5425 7.74267 28.1985L8.10749 28.0687L14.0782 25.9854C14.0586 25.9432 14.0424 25.8978 14.0261 25.8524C13.9739 25.7128 13.9186 25.5733 13.8632 25.4338L13.6873 24.9535C13.5928 24.6972 13.4919 24.4408 13.3909 24.1877C13.2704 23.8632 13.1433 23.5549 13.0293 23.2337L12.4756 21.715C11.9153 20.1671 11.3355 18.5706 10.7818 16.9903C10.0912 15.0433 9.40391 12.9795 8.74267 10.8864L2.78176 12.9957C1.97394 13.2812 1.21824 13.583 0.827364 14.1217C0.61445 14.3802 0.465251 14.6848 0.391718 15.011C0.318186 15.3373 0.322363 15.6762 0.40391 16.0006C0.863194 17.2986 1.29316 18.5706 1.70684 19.7615C2.14305 19.7197 2.58299 19.782 2.99023 19.9432C3.47722 20.1227 3.87846 20.4784 4.11401 20.9394C4.20818 21.1745 4.25107 21.4269 4.23984 21.6798C4.22861 21.9327 4.16351 22.1803 4.04886 22.4062C3.8161 22.9028 3.46087 23.3326 3.01629 23.6555Z" fill="black"/>
<path d="M19.114 19.8945H19.0684C19.0275 19.8818 18.9933 19.8536 18.9732 19.8159C18.9531 19.7782 18.9487 19.7342 18.9609 19.6933L21.6221 10.5879C21.6349 10.5471 21.6631 10.5128 21.7008 10.4922C21.7384 10.4716 21.7826 10.4664 21.8241 10.4776C21.8446 10.4835 21.8638 10.4934 21.8804 10.5068C21.8971 10.5201 21.911 10.5366 21.9213 10.5553C21.9316 10.574 21.938 10.5945 21.9404 10.6157C21.9427 10.6368 21.9408 10.6583 21.9348 10.6787L19.2703 19.7842C19.2598 19.817 19.2388 19.8454 19.2106 19.8653C19.1824 19.8852 19.1485 19.8955 19.114 19.8945Z" fill="black"/>
<path d="M17.7101 14.6961C17.5441 14.6968 17.3798 14.6625 17.2281 14.5955C17.0552 14.5165 16.9006 14.4028 16.774 14.2615C16.6473 14.1202 16.5513 13.9544 16.4919 13.7745C16.2737 13.1255 16.2248 12.3337 16.7492 11.98C16.9245 11.8438 17.1324 11.7557 17.3524 11.7244C17.5724 11.6931 17.7968 11.7197 18.0033 11.8015C18.2452 11.9188 18.4582 12.0878 18.6271 12.2965C18.796 12.5051 18.9167 12.7483 18.9805 13.0087C19.0391 13.3332 19.1955 14.1704 18.2899 14.5663C18.1081 14.6501 17.9105 14.6943 17.7101 14.6961ZM17.5505 12.0319C17.3267 12.0394 17.1107 12.1153 16.9316 12.2493C16.4398 12.5738 16.7623 13.5473 16.7981 13.6674C16.8427 13.8056 16.9155 13.9332 17.0119 14.042C17.1083 14.1509 17.2263 14.2388 17.3583 14.3002C17.4864 14.352 17.624 14.3763 17.7621 14.3712C17.9003 14.3662 18.0358 14.332 18.1597 14.271C18.7492 14.0114 18.7492 13.5408 18.6613 13.0671C18.6079 12.8583 18.5103 12.6634 18.3749 12.4954C18.2394 12.3275 18.0694 12.1905 17.8763 12.0936C17.7727 12.0523 17.6621 12.0314 17.5505 12.0319Z" fill="black"/>
<path d="M23.4463 18.4927C23.2793 18.4919 23.1143 18.4577 22.9609 18.3921C22.7885 18.3122 22.6344 18.1978 22.5083 18.056C22.3822 17.9142 22.2868 17.748 22.228 17.5679C22.0065 16.9351 21.9609 16.1303 22.4821 15.7766C22.6572 15.6402 22.865 15.5517 23.0849 15.5198C23.3048 15.488 23.5293 15.5138 23.7362 15.5949C23.9779 15.7133 24.1907 15.883 24.3595 16.0921C24.5284 16.3012 24.6491 16.5447 24.7134 16.8053C24.7753 17.1298 24.9316 17.9638 24.0261 18.3629C23.8437 18.4452 23.6464 18.4894 23.4463 18.4927ZM23.2866 15.8285C23.0623 15.8359 22.8455 15.9105 22.6645 16.0427C22.1759 16.3672 22.4951 17.3407 22.5342 17.464C22.5786 17.6019 22.651 17.7291 22.7468 17.838C22.8426 17.9468 22.9598 18.0349 23.0912 18.0968C23.2199 18.1481 23.358 18.1721 23.4966 18.167C23.6352 18.162 23.7711 18.1281 23.8958 18.0676C24.4853 17.808 24.4853 17.3375 24.3974 16.8637C24.3441 16.6549 24.2464 16.46 24.111 16.2921C23.9755 16.1241 23.8055 15.9871 23.6124 15.8902C23.5118 15.8505 23.4047 15.8296 23.2964 15.8285H23.2866Z" fill="black"/>
<path d="M7.44626 25.4564C7.43505 25.4561 7.42419 25.4525 7.41495 25.4462C7.40572 25.4399 7.39849 25.431 7.39414 25.4208C7.38971 25.407 7.39059 25.392 7.39661 25.3788C7.40263 25.3656 7.41336 25.3551 7.42671 25.3494L11.0391 24.1065C11.0529 24.1024 11.0678 24.1039 11.0806 24.1105C11.0933 24.1172 11.103 24.1286 11.1075 24.1422C11.1118 24.1556 11.1108 24.1701 11.1047 24.1827C11.0987 24.1954 11.088 24.2053 11.0749 24.2104L7.46255 25.4532L7.44626 25.4564Z" fill="black"/>
<path d="M7.61895 23.7528C7.60753 23.7534 7.59625 23.7502 7.58683 23.7438C7.57741 23.7373 7.57039 23.728 7.56683 23.7171C7.56255 23.7038 7.56354 23.6893 7.56959 23.6766C7.57564 23.664 7.5863 23.6541 7.5994 23.649L10.531 22.6463C10.5444 22.6416 10.5591 22.6423 10.5719 22.6484C10.5848 22.6545 10.5946 22.6654 10.5994 22.6787C10.6042 22.6921 10.6034 22.7068 10.5973 22.7195C10.5912 22.7323 10.5802 22.7422 10.5668 22.7469L7.63524 23.7496L7.61895 23.7528Z" fill="black"/>
<path d="M6.13033 22.6301C6.11913 22.6297 6.10827 22.6261 6.09903 22.6198C6.08979 22.6135 6.08258 22.6047 6.07822 22.5944C6.0738 22.5806 6.07467 22.5656 6.08069 22.5524C6.08671 22.5392 6.09744 22.5287 6.11079 22.523L10.0196 21.1828C10.0262 21.1802 10.0333 21.1791 10.0404 21.1793C10.0474 21.1796 10.0544 21.1813 10.0608 21.1843C10.0672 21.1874 10.0729 21.1917 10.0776 21.197C10.0823 21.2023 10.0858 21.2085 10.088 21.2152C10.0923 21.2286 10.0913 21.2431 10.0852 21.2557C10.0792 21.2684 10.0685 21.2783 10.0554 21.2834L6.14663 22.6268L6.13033 22.6301Z" fill="black"/>
<path d="M5.09771 19.7031C5.0864 19.7031 5.07534 19.6997 5.06603 19.6934C5.05671 19.687 5.04958 19.6779 5.04559 19.6674C5.04131 19.654 5.0423 19.6395 5.04835 19.6269C5.0544 19.6142 5.06506 19.6043 5.07817 19.5992L8.98696 18.2558C9.00034 18.2526 9.01442 18.2545 9.02646 18.2611C9.03851 18.2678 9.04766 18.2786 9.05213 18.2915C9.0566 18.3045 9.05607 18.3186 9.05065 18.3312C9.04523 18.3438 9.03529 18.3539 9.02279 18.3596L5.11399 19.6998L5.09771 19.7031Z" fill="black"/>
<path d="M3.55047 15.3158C3.53905 15.3164 3.52777 15.3132 3.51835 15.3068C3.50893 15.3003 3.50191 15.291 3.49835 15.2802C3.49407 15.2668 3.49506 15.2523 3.50111 15.2397C3.50716 15.227 3.51782 15.2171 3.53092 15.212L7.43972 13.8686C7.45313 13.8643 7.46766 13.8653 7.48037 13.8713C7.49307 13.8774 7.50299 13.888 7.50812 13.901C7.5124 13.9144 7.51142 13.9289 7.50537 13.9415C7.49932 13.9542 7.48865 13.9641 7.47554 13.9692L3.56675 15.3126L3.55047 15.3158Z" fill="black"/>
<path d="M5.05535 18.0708C5.04394 18.0714 5.03265 18.0682 5.02324 18.0618C5.01382 18.0553 5.00679 18.046 5.00323 18.0351C4.99895 18.0218 4.99994 18.0073 5.00599 17.9946C5.01204 17.982 5.0227 17.9721 5.03581 17.967L8.44623 16.7955C8.45285 16.793 8.45991 16.7918 8.467 16.7921C8.47408 16.7924 8.48105 16.7941 8.48745 16.7971C8.49386 16.8001 8.49957 16.8044 8.50424 16.8098C8.50892 16.8151 8.51245 16.8213 8.51463 16.828C8.51874 16.8418 8.5173 16.8566 8.51061 16.8693C8.50392 16.882 8.49251 16.8917 8.47881 16.8962L5.07163 18.0676L5.05535 18.0708Z" fill="black"/>
<path d="M6.58636 20.8258C6.57494 20.8264 6.56366 20.8232 6.55424 20.8168C6.54482 20.8103 6.5378 20.801 6.53424 20.7901C6.52996 20.7768 6.53094 20.7623 6.53699 20.7497C6.54304 20.737 6.55371 20.7271 6.56681 20.722L9.49841 19.7193C9.51227 19.7149 9.52728 19.7158 9.54052 19.7218C9.55376 19.7278 9.56429 19.7384 9.57006 19.7517C9.57257 19.7585 9.57362 19.7658 9.57314 19.773C9.57267 19.7803 9.57068 19.7873 9.56731 19.7937C9.56393 19.8001 9.55925 19.8058 9.55355 19.8103C9.54786 19.8148 9.54128 19.8181 9.53424 19.8199L6.60264 20.8226L6.58636 20.8258Z" fill="black"/>
<path d="M5.05535 16.4386C5.04394 16.4392 5.03265 16.436 5.02324 16.4296C5.01382 16.4231 5.00679 16.4137 5.00323 16.4029C4.99895 16.3896 4.99994 16.3751 5.00599 16.3624C5.01204 16.3498 5.0227 16.3399 5.03581 16.3348L7.9674 15.3321C7.98079 15.3274 7.99552 15.3281 8.00835 15.3342C8.02118 15.3403 8.03105 15.3512 8.0358 15.3645C8.04056 15.3779 8.0398 15.3925 8.03369 15.4053C8.02758 15.4181 8.01662 15.4279 8.00323 15.4327L5.07163 16.4354L5.05535 16.4386Z" fill="black"/>
<path d="M30.2834 19.3494C30.2702 19.3494 30.2574 19.3444 30.2477 19.3354C30.238 19.3263 30.2321 19.3139 30.2313 19.3007C30.1541 18.6242 30.0022 17.9582 29.7785 17.3148C29.776 17.3082 29.7748 17.3011 29.7751 17.2941C29.7753 17.287 29.777 17.2801 29.7801 17.2737C29.7831 17.2673 29.7875 17.2616 29.7928 17.257C29.7981 17.2523 29.8044 17.2488 29.8111 17.2466C29.8245 17.2424 29.8391 17.2433 29.8518 17.2494C29.8645 17.2554 29.8744 17.266 29.8795 17.2791C30.1069 17.9307 30.2609 18.6055 30.3388 19.291C30.3397 19.3051 30.3352 19.319 30.3261 19.3299C30.317 19.3408 30.3041 19.3478 30.2899 19.3494H30.2834Z" fill="black"/>
<path d="M29.7036 19.7615C29.6915 19.7611 29.6798 19.7568 29.6704 19.7492C29.661 19.7415 29.6543 19.7311 29.6515 19.7193L29.443 18.8464C29.4396 18.8326 29.4417 18.8181 29.4491 18.8059C29.4564 18.7937 29.4683 18.7849 29.4821 18.7815C29.4959 18.7781 29.5105 18.7802 29.5228 18.7875C29.535 18.7948 29.5438 18.8067 29.5472 18.8204L29.7557 19.6934C29.7577 19.7002 29.7582 19.7073 29.7572 19.7143C29.7563 19.7214 29.7539 19.7281 29.7503 19.7342C29.7466 19.7403 29.7417 19.7456 29.7359 19.7497C29.7302 19.7538 29.7236 19.7567 29.7166 19.7582L29.7036 19.7615Z" fill="black"/>
<path d="M10.3583 12.6939C10.348 12.6932 10.3381 12.6899 10.3295 12.6842C10.3209 12.6785 10.314 12.6707 10.3094 12.6614C10.1112 12.196 9.94786 11.7166 9.82082 11.2272C9.81888 11.2203 9.81836 11.2132 9.8193 11.2062C9.82024 11.1991 9.82261 11.1924 9.82627 11.1863C9.82993 11.1802 9.83481 11.1749 9.84059 11.1708C9.84638 11.1667 9.85295 11.1638 9.85991 11.1623C9.86654 11.1603 9.87349 11.1596 9.88038 11.1604C9.88726 11.1611 9.89394 11.1632 9.9 11.1665C9.90606 11.1698 9.9114 11.1743 9.91571 11.1797C9.92001 11.1851 9.92319 11.1913 9.92506 11.1979C10.0509 11.6828 10.212 12.1578 10.4071 12.6193C10.4104 12.6256 10.4123 12.6326 10.4127 12.6397C10.4132 12.6468 10.4121 12.6539 10.4097 12.6606C10.4072 12.6673 10.4035 12.6734 10.3985 12.6786C10.3936 12.6838 10.3877 12.6879 10.3811 12.6906L10.3583 12.6939Z" fill="black"/>
<g opacity="0.13">
<path d="M30.9609 19.8361C30.8709 19.8784 30.7934 19.9432 30.7362 20.0243L30.671 20.0925C30.3933 20.3122 30.0776 20.4793 29.7394 20.5857C28.8371 20.881 28.8925 20.8291 28.2411 21.0043C27.759 21.1471 27.7069 21.2477 27.0912 21.4749C26.2801 21.7702 25.4626 22.033 24.6384 22.3218L23.3192 22.7404C23.0652 22.8572 22.8078 22.9676 22.5473 23.0649C21.3486 23.4868 20.1477 23.9 18.9446 24.3045C18.1889 24.629 15.9772 25.3332 15.1303 25.6382C14.2834 25.9432 13.4658 26.2515 12.6287 26.5435C11.9945 26.7256 11.374 26.9522 10.772 27.2217C10.2867 27.4067 10.5766 27.251 10.088 27.397C10.0144 27.4369 9.95662 27.5005 9.92391 27.5773C9.8912 27.6541 9.8855 27.7396 9.90776 27.8201C9.93002 27.9005 9.97892 27.9711 10.0465 28.0203C10.1141 28.0696 10.1965 28.0946 10.2801 28.0914C10.862 28.0532 11.4307 27.9022 11.9544 27.6468C13.2003 27.2667 14.4237 26.8171 15.6189 26.3002C16.6645 25.8945 17.7622 25.6512 18.8143 25.252C19.2497 25.1312 19.6754 24.9782 20.088 24.7945C21.0652 24.4213 22.1075 24.2104 23.0717 23.7821C23.5994 23.5776 24.1075 23.331 24.6515 23.1687C25.3779 22.9286 25.5994 22.9286 26.202 22.7209C26.8046 22.5133 27.3486 22.2666 27.9414 22.1109C28.3212 22.0112 28.6953 21.891 29.0619 21.7507C29.3631 21.6687 29.6563 21.5601 29.9381 21.4262C30.4691 21.1406 30.8762 20.9557 31.2085 20.4819C31.1987 20.4975 31.19 20.5138 31.1824 20.5306C31.2702 20.4546 31.3402 20.3605 31.3876 20.2547C31.4109 20.1956 31.4162 20.1309 31.4029 20.0688C31.3896 20.0067 31.3583 19.9498 31.3129 19.9052C31.2674 19.8607 31.2099 19.8304 31.1473 19.8181C31.0847 19.8058 31.0199 19.8121 30.9609 19.8361Z" fill="black"/>
</g>
</g>
<defs>
<linearGradient id="paint0_linear_3298_47793" x1="7.25222" y1="10.6755" x2="7.25222" y2="28.8475" gradientUnits="userSpaceOnUse">
<stop stop-color="#E72E6B"/>
<stop offset="1" stop-color="#F3973D"/>
</linearGradient>
<linearGradient id="paint1_linear_3298_47793" x1="7.25222" y1="10.6755" x2="7.25222" y2="28.8475" gradientUnits="userSpaceOnUse">
<stop stop-color="#E72E6B"/>
<stop offset="1" stop-color="#F3973D"/>
</linearGradient>
<clipPath id="clip0_3298_47793">
<rect width="34" height="24" fill="white" transform="translate(0 5)"/>
</clipPath>
</defs>
</svg>
