<svg width="987" height="325" viewBox="0 0 987 325" fill="none" xmlns="http://www.w3.org/2000/svg">
<path d="M254.734 156.659V168.513C254.734 187.524 252.16 204.589 247.013 219.707C241.867 234.824 234.604 247.709 225.225 258.36C215.847 268.896 204.638 276.97 191.6 282.582C178.676 288.194 164.322 291 148.538 291C132.869 291 118.515 288.194 105.477 282.582C92.5528 276.97 81.3443 268.896 71.8513 258.36C62.3584 247.709 54.9813 234.824 49.7202 219.707C44.5734 204.589 42 187.524 42 168.513V156.659C42 137.533 44.5734 120.468 49.7202 105.465C54.8669 90.3476 62.1296 77.4632 71.5082 66.8122C81.0011 56.1611 92.2097 48.0296 105.134 42.4178C118.172 36.8059 132.526 34 148.195 34C163.979 34 178.332 36.8059 191.257 42.4178C204.295 48.0296 215.504 56.1611 224.882 66.8122C234.375 77.4632 241.695 90.3476 246.842 105.465C252.103 120.468 254.734 137.533 254.734 156.659ZM202.751 168.513V156.316C202.751 143.03 201.55 131.348 199.148 121.27C196.746 111.192 193.201 102.717 188.512 95.8449C183.822 88.9733 178.104 83.8195 171.356 80.3837C164.608 76.8333 156.888 75.0582 148.195 75.0582C139.503 75.0582 131.783 76.8333 125.035 80.3837C118.401 83.8195 112.74 88.9733 108.05 95.8449C103.475 102.717 99.987 111.192 97.5852 121.27C95.1834 131.348 93.9825 143.03 93.9825 156.316V168.513C93.9825 181.683 95.1834 193.365 97.5852 203.558C99.987 213.637 103.533 222.169 108.222 229.155C112.911 236.027 118.63 241.238 125.378 244.788C132.126 248.338 139.846 250.114 148.538 250.114C157.231 250.114 164.951 248.338 171.699 244.788C178.447 241.238 184.108 236.027 188.683 229.155C193.258 222.169 196.746 213.637 199.148 203.558C201.55 193.365 202.751 181.683 202.751 168.513Z" fill="#101828"/>
<path d="M496.975 156.659V168.513C496.975 187.524 494.402 204.589 489.255 219.707C484.108 234.824 476.846 247.709 467.467 258.36C458.088 268.896 446.88 276.97 433.841 282.582C420.917 288.194 406.563 291 390.78 291C375.111 291 360.757 288.194 347.719 282.582C334.795 276.97 323.586 268.896 314.093 258.36C304.6 247.709 297.223 234.824 291.962 219.707C286.815 204.589 284.242 187.524 284.242 168.513V156.659C284.242 137.533 286.815 120.468 291.962 105.465C297.109 90.3476 304.371 77.4632 313.75 66.8122C323.243 56.1611 334.451 48.0296 347.376 42.4178C360.414 36.8059 374.768 34 390.437 34C406.22 34 420.574 36.8059 433.498 42.4178C446.537 48.0296 457.745 56.1611 467.124 66.8122C476.617 77.4632 483.937 90.3476 489.083 105.465C494.345 120.468 496.975 137.533 496.975 156.659ZM444.993 168.513V156.316C444.993 143.03 443.792 131.348 441.39 121.27C438.988 111.192 435.443 102.717 430.753 95.8449C426.064 88.9733 420.345 83.8195 413.597 80.3837C406.849 76.8333 399.129 75.0582 390.437 75.0582C381.745 75.0582 374.024 76.8333 367.276 80.3837C360.643 83.8195 354.981 88.9733 350.292 95.8449C345.717 102.717 342.229 111.192 339.827 121.27C337.425 131.348 336.224 143.03 336.224 156.316V168.513C336.224 181.683 337.425 193.365 339.827 203.558C342.229 213.637 345.774 222.169 350.464 229.155C355.153 236.027 360.872 241.238 367.62 244.788C374.368 248.338 382.088 250.114 390.78 250.114C399.472 250.114 407.193 248.338 413.941 244.788C420.689 241.238 426.35 236.027 430.925 229.155C435.5 222.169 438.988 213.637 441.39 203.558C443.792 193.365 444.993 181.683 444.993 168.513Z" fill="#101828"/>
<path d="M631.306 198.404H567.658V158.205H631.306C641.142 158.205 649.148 156.602 655.324 153.395C661.501 150.074 666.018 145.493 668.878 139.652C671.737 133.811 673.167 127.225 673.167 119.896C673.167 112.451 671.737 105.523 668.878 99.109C666.018 92.6954 661.501 87.5417 655.324 83.6477C649.148 79.7538 641.142 77.8068 631.306 77.8068H585.5V287.564H534.032V37.4358H631.306C650.864 37.4358 667.62 40.9862 681.573 48.0869C695.641 55.0731 706.392 64.7507 713.826 77.1197C721.26 89.4886 724.978 103.633 724.978 119.552C724.978 135.701 721.26 149.673 713.826 161.469C706.392 173.266 695.641 182.371 681.573 188.784C667.62 195.198 650.864 198.404 631.306 198.404Z" fill="#101828"/>
<path d="M890.532 222.112C890.532 217.645 889.846 213.637 888.474 210.086C887.215 206.421 884.814 203.1 881.268 200.122C877.722 197.03 872.747 193.995 866.342 191.017C859.938 188.04 851.645 184.947 841.466 181.741C830.143 178.076 819.392 173.953 809.213 169.372C799.148 164.791 790.227 159.465 782.45 153.395C774.787 147.211 768.725 140.053 764.265 131.921C759.918 123.79 757.745 114.341 757.745 103.576C757.745 93.1535 760.033 83.705 764.608 75.2299C769.183 66.6404 775.588 59.3106 783.822 53.2406C792.057 47.0562 801.779 42.3033 812.987 38.982C824.31 35.6607 836.72 34 850.216 34C868.63 34 884.699 37.3213 898.424 43.9639C912.149 50.6065 922.785 59.7115 930.334 71.2787C937.997 82.846 941.828 96.074 941.828 110.963H890.704C890.704 103.633 889.16 97.2193 886.072 91.7219C883.098 86.1101 878.523 81.7008 872.347 78.494C866.285 75.2872 858.622 73.6838 849.358 73.6838C840.437 73.6838 833.003 75.0582 827.055 77.8068C821.108 80.441 816.647 84.0486 813.674 88.6297C810.7 93.0963 809.213 98.1355 809.213 103.747C809.213 107.985 810.242 111.822 812.301 115.257C814.474 118.693 817.677 121.9 821.909 124.878C826.14 127.855 831.344 130.661 837.52 133.295C843.697 135.93 850.845 138.506 858.965 141.026C872.576 145.149 884.528 149.787 894.821 154.941C905.229 160.095 913.922 165.879 920.898 172.292C927.875 178.706 933.136 185.978 936.682 194.11C940.227 202.241 942 211.461 942 221.768C942 232.648 939.884 242.383 935.652 250.973C931.421 259.562 925.302 266.835 917.295 272.79C909.289 278.746 899.739 283.269 888.645 286.362C877.551 289.454 865.141 291 851.417 291C839.064 291 826.884 289.397 814.875 286.19C802.865 282.869 791.943 277.887 782.107 271.244C772.385 264.601 764.608 256.126 758.775 245.819C752.942 235.511 750.025 223.314 750.025 209.227H801.665C801.665 217.015 802.865 223.6 805.267 228.983C807.669 234.366 811.043 238.718 815.389 242.039C819.85 245.361 825.111 247.766 831.173 249.255C837.349 250.744 844.097 251.488 851.417 251.488C860.338 251.488 867.658 250.228 873.376 247.709C879.209 245.189 883.498 241.696 886.243 237.229C889.103 232.763 890.532 227.723 890.532 222.112Z" fill="#101828"/>
<path d="M904.331 307.771C905.026 308.368 905.775 308.907 906.571 309.386C907.361 309.858 908.197 310.274 909.082 310.625C909.99 310.988 910.947 311.285 911.95 311.513C913.034 311.761 914.173 311.928 915.357 312.015C916.744 312.113 918.197 312.101 919.713 311.969C922.036 311.767 924.51 311.285 927.104 310.51C927.32 310.447 927.537 310.38 927.753 310.311C931.27 309.201 934.784 307.622 938.214 305.664C940.863 304.151 943.46 302.413 945.974 300.487C947.591 299.247 949.171 297.933 950.707 296.549C952.019 295.367 953.299 294.136 954.538 292.865C955.677 291.698 956.784 290.493 957.851 289.259C958.883 288.069 959.877 286.849 960.834 285.607C961.788 284.367 962.705 283.102 963.578 281.819C964.486 280.484 965.348 279.129 966.158 277.757C967.038 276.27 967.859 274.765 968.611 273.246C969.534 271.389 970.358 269.513 971.07 267.633C971.996 265.192 972.737 262.742 973.267 260.306C975.587 249.672 973.475 241.378 968.185 236.593L978.118 245.584C983.408 250.372 985.521 258.663 983.201 269.297C982.67 271.733 981.929 274.183 981.004 276.624C980.292 278.507 979.468 280.38 978.545 282.237C977.793 283.756 976.971 285.261 976.092 286.748C975.282 288.12 974.42 289.475 973.509 290.81C972.636 292.093 971.719 293.358 970.765 294.598C969.808 295.84 968.81 297.059 967.781 298.25C966.712 299.484 965.608 300.689 964.469 301.856C963.23 303.127 961.95 304.358 960.638 305.54C959.102 306.924 957.522 308.241 955.905 309.478C953.391 311.404 950.791 313.145 948.145 314.655C944.714 316.613 941.2 318.192 937.684 319.302C937.467 319.371 937.251 319.438 937.035 319.501C934.438 320.279 931.967 320.758 929.644 320.96C928.128 321.092 926.675 321.107 925.288 321.006C924.1 320.922 922.965 320.752 921.881 320.504C920.878 320.276 919.921 319.979 919.013 319.616C918.128 319.265 917.292 318.849 916.502 318.377C915.706 317.898 914.957 317.359 914.262 316.762C914.155 316.67 914.052 316.578 913.948 316.486L904.014 307.495C904.118 307.59 904.222 307.682 904.328 307.771H904.331Z" fill="url(#paint0_linear_527_6187)"/>
<path d="M898.935 283.779C894.323 304.914 907.225 316.791 927.753 310.311C948.283 303.828 968.663 281.438 973.276 260.302C977.888 239.167 964.985 227.29 944.458 233.773C923.927 240.254 903.547 262.643 898.935 283.779Z" fill="url(#paint1_linear_527_6187)"/>
<path d="M955.006 235.747C960.212 235.747 964.368 237.494 967.026 240.795C970.41 244.995 971.327 251.639 969.612 259.5C967.519 269.091 961.872 279.31 953.708 288.275C945.548 297.237 935.928 303.792 926.62 306.733C923.265 307.794 920.097 308.33 917.2 308.33C911.996 308.33 907.84 306.583 905.179 303.282C901.795 299.082 900.878 292.438 902.593 284.577C904.686 274.986 910.333 264.767 918.497 255.802C926.658 246.837 936.277 240.282 945.582 237.344C948.938 236.284 952.106 235.747 955.003 235.747H955.006ZM955.003 232C951.788 232 948.251 232.571 944.452 233.77C923.928 240.253 903.547 262.643 898.935 283.778C895.176 301.002 903.051 312.08 917.202 312.08C920.417 312.08 923.954 311.509 927.753 310.31C948.283 303.827 968.664 281.437 973.276 260.302C977.035 243.078 969.159 232 955.006 232L955.003 232Z" fill="url(#paint2_linear_527_6187)"/>
<path d="M972.98 311.902C980.214 304.668 980.214 292.939 972.98 285.705C965.746 278.471 954.017 278.471 946.783 285.705C939.549 292.939 939.549 304.668 946.783 311.902C954.017 319.136 965.746 319.136 972.98 311.902Z" fill="#E7316A"/>
<rect x="316" y="219" width="16" height="32" fill="#F9FAFB"/>
<rect x="463" y="131" width="16" height="32" fill="#F9FAFB"/>
<rect x="215" y="187" width="16" height="32" fill="#F9FAFB"/>
<rect x="773" y="219" width="16" height="32" fill="#F9FAFB"/>
<rect x="781" y="99" width="16" height="32" fill="#F9FAFB"/>
<rect x="63" y="99" width="16" height="32" fill="#F9FAFB"/>
<path d="M13.3061 76.2705L40.6974 50.1085L49.6587 13.3059L75.8207 40.6972L112.623 49.6585L85.232 75.8206L76.2707 112.623L50.1087 85.2319L13.3061 76.2705Z" fill="#E7316A"/>
<defs>
<linearGradient id="paint0_linear_527_6187" x1="983.396" y1="250.375" x2="918.995" y2="321.126" gradientUnits="userSpaceOnUse">
<stop stop-color="#B27900"/>
<stop offset="0.06" stop-color="#C89112"/>
<stop offset="0.14" stop-color="#DFAA24"/>
<stop offset="0.22" stop-color="#EFBC31"/>
<stop offset="0.3" stop-color="#F8C739"/>
<stop offset="0.4" stop-color="#FCCB3C"/>
<stop offset="0.54" stop-color="#F5C337"/>
<stop offset="0.75" stop-color="#E2AF2A"/>
<stop offset="1" stop-color="#C48F16"/>
</linearGradient>
<linearGradient id="paint1_linear_527_6187" x1="962.203" y1="285.489" x2="909.872" y2="258.467" gradientUnits="userSpaceOnUse">
<stop stop-color="#FFDF82"/>
<stop offset="1" stop-color="#EFB40A"/>
</linearGradient>
<linearGradient id="paint2_linear_527_6187" x1="975.092" y1="270.21" x2="897.119" y2="273.87" gradientUnits="userSpaceOnUse">
<stop stop-color="#FFE487"/>
<stop offset="1" stop-color="#F8CD4F"/>
</linearGradient>
</defs>
</svg>
