<svg width="987" height="169" viewBox="0 0 987 169" fill="none" xmlns="http://www.w3.org/2000/svg">
<path d="M545.309 158.114C545.735 158.479 546.194 158.809 546.681 159.102C547.164 159.392 547.676 159.646 548.218 159.861C548.774 160.083 549.36 160.265 549.974 160.405C550.637 160.556 551.334 160.659 552.06 160.712C552.909 160.772 553.798 160.765 554.726 160.683C556.149 160.56 557.663 160.265 559.251 159.79C559.384 159.752 559.516 159.711 559.648 159.669C561.802 158.989 563.953 158.022 566.053 156.824C567.675 155.897 569.265 154.833 570.804 153.654C571.794 152.895 572.761 152.091 573.702 151.243C574.505 150.52 575.288 149.766 576.047 148.988C576.744 148.273 577.422 147.536 578.075 146.78C578.707 146.051 579.316 145.305 579.901 144.544C580.486 143.785 581.047 143.011 581.582 142.225C582.137 141.408 582.665 140.579 583.161 139.739C583.699 138.828 584.202 137.907 584.663 136.977C585.228 135.84 585.732 134.691 586.168 133.541C586.735 132.046 587.188 130.546 587.513 129.054C588.934 122.544 587.64 117.467 584.402 114.537L590.483 120.042C593.722 122.973 595.015 128.049 593.595 134.559C593.27 136.05 592.816 137.55 592.25 139.045C591.814 140.197 591.309 141.345 590.744 142.481C590.284 143.411 589.781 144.332 589.243 145.243C588.747 146.083 588.219 146.913 587.661 147.73C587.127 148.515 586.565 149.29 585.981 150.049C585.395 150.809 584.785 151.556 584.155 152.285C583.5 153.04 582.824 153.778 582.127 154.492C581.368 155.271 580.584 156.024 579.781 156.748C578.841 157.595 577.874 158.402 576.884 159.159C575.345 160.338 573.753 161.403 572.133 162.328C570.033 163.527 567.881 164.494 565.728 165.173C565.596 165.215 565.464 165.256 565.331 165.295C563.741 165.771 562.229 166.064 560.806 166.188C559.878 166.269 558.988 166.278 558.14 166.216C557.412 166.165 556.717 166.061 556.054 165.909C555.439 165.77 554.853 165.588 554.298 165.365C553.756 165.15 553.244 164.896 552.76 164.607C552.273 164.314 551.814 163.984 551.389 163.618C551.324 163.562 551.26 163.505 551.197 163.449L545.115 157.944C545.179 158.003 545.242 158.059 545.308 158.114H545.309Z" fill="url(#paint0_linear_1915_21192)"/>
<path d="M542.005 143.421C539.181 156.36 547.081 163.632 559.648 159.664C572.217 155.695 584.694 141.988 587.518 129.048C590.341 116.109 582.442 108.838 569.875 112.807C557.306 116.774 544.829 130.481 542.005 143.421Z" fill="url(#paint1_linear_1915_21192)"/>
<path d="M576.332 114.017C579.52 114.017 582.064 115.086 583.692 117.107C585.763 119.678 586.325 123.746 585.275 128.559C583.993 134.43 580.536 140.687 575.538 146.175C570.542 151.662 564.653 155.675 558.954 157.475C556.9 158.125 554.96 158.453 553.187 158.453C550.001 158.453 547.456 157.384 545.828 155.363C543.756 152.792 543.194 148.724 544.244 143.911C545.526 138.04 548.983 131.783 553.981 126.295C558.977 120.806 564.866 116.793 570.563 114.995C572.617 114.345 574.557 114.017 576.331 114.017H576.332ZM576.331 111.723C574.363 111.723 572.197 112.072 569.871 112.806C557.306 116.775 544.829 130.483 542.005 143.422C539.704 153.967 544.525 160.749 553.189 160.749C555.156 160.749 557.322 160.4 559.648 159.666C572.217 155.696 584.694 141.989 587.518 129.05C589.819 118.505 584.998 111.723 576.332 111.723L576.331 111.723Z" fill="url(#paint2_linear_1915_21192)"/>
<path d="M587.338 160.644C591.767 156.215 591.767 149.035 587.338 144.606C582.909 140.177 575.729 140.177 571.3 144.606C566.871 149.035 566.871 156.215 571.3 160.644C575.729 165.073 582.909 165.073 587.338 160.644Z" fill="#E7316A"/>
<path d="M913.25 49.9448L931.187 32.8131L937.055 8.71363L954.187 26.6503L978.286 32.5185L960.35 49.6502L954.481 73.7497L937.35 55.813L913.25 49.9448Z" fill="#E7316A"/>
<path d="M145.203 76.4861H121.169C120.849 74.0187 120.192 71.7915 119.198 69.8047C118.205 67.8179 116.891 66.1196 115.257 64.7096C113.622 63.2996 111.684 62.2261 109.44 61.489C107.229 60.72 104.778 60.3354 102.086 60.3354C97.3114 60.3354 93.1936 61.5051 89.7328 63.8444C86.3039 66.1836 83.6602 69.5644 81.8016 73.9866C79.975 78.4088 79.0617 83.7604 79.0617 90.0412C79.0617 96.5784 79.991 102.058 81.8497 106.48C83.7403 110.871 86.384 114.187 89.7808 116.43C93.2096 118.641 97.2633 119.747 101.942 119.747C104.57 119.747 106.957 119.411 109.104 118.738C111.283 118.065 113.19 117.087 114.824 115.805C116.49 114.492 117.852 112.905 118.91 111.047C119.999 109.156 120.752 107.025 121.169 104.654L145.203 104.798C144.786 109.156 143.52 113.45 141.405 117.68C139.323 121.91 136.454 125.771 132.801 129.264C129.148 132.725 124.694 135.481 119.439 137.532C114.215 139.583 108.223 140.608 101.461 140.608C92.5527 140.608 84.5735 138.654 77.5236 134.744C70.5057 130.803 64.9619 125.066 60.8922 117.536C56.8225 110.005 54.7876 100.84 54.7876 90.0412C54.7876 79.21 56.8545 70.0291 60.9883 62.4985C65.1221 54.9679 70.714 49.2478 77.7639 45.3383C84.8138 41.4288 92.7129 39.4741 101.461 39.4741C107.422 39.4741 112.933 40.3072 117.997 41.9736C123.06 43.6079 127.514 46.0113 131.359 49.1837C135.205 52.3242 138.329 56.1856 140.732 60.768C143.136 65.3505 144.626 70.5898 145.203 76.4861Z" fill="black"/>
<path d="M193.282 140.656C185.528 140.656 178.862 139.07 173.286 135.898C167.742 132.693 163.464 128.239 160.452 122.535C157.472 116.799 155.982 110.149 155.982 102.587C155.982 94.9922 157.472 88.3428 160.452 82.6388C163.464 76.9027 167.742 72.4485 173.286 69.276C178.862 66.0715 185.528 64.4692 193.282 64.4692C201.037 64.4692 207.687 66.0715 213.23 69.276C218.806 72.4485 223.084 76.9027 226.065 82.6388C229.077 88.3428 230.583 94.9922 230.583 102.587C230.583 110.149 229.077 116.799 226.065 122.535C223.084 128.239 218.806 132.693 213.23 135.898C207.687 139.07 201.037 140.656 193.282 140.656ZM193.427 122.919C196.247 122.919 198.634 122.054 200.589 120.324C202.543 118.593 204.034 116.19 205.059 113.114C206.116 110.037 206.645 106.48 206.645 102.443C206.645 98.3409 206.116 94.7518 205.059 91.6755C204.034 88.5992 202.543 86.1958 200.589 84.4654C198.634 82.7349 196.247 81.8697 193.427 81.8697C190.511 81.8697 188.043 82.7349 186.024 84.4654C184.037 86.1958 182.515 88.5992 181.458 91.6755C180.432 94.7518 179.92 98.3409 179.92 102.443C179.92 106.48 180.432 110.037 181.458 113.114C182.515 116.19 184.037 118.593 186.024 120.324C188.043 122.054 190.511 122.919 193.427 122.919Z" fill="black"/>
<path d="M242.624 139.262V65.4306H264.975V78.9857H265.792C267.331 74.4993 269.926 70.9584 273.579 68.3627C277.233 65.7671 281.591 64.4692 286.654 64.4692C291.781 64.4692 296.171 65.7831 299.824 68.4108C303.477 71.0385 305.801 74.5634 306.794 78.9857H307.563C308.941 74.5955 311.633 71.0865 315.639 68.4589C319.644 65.7991 324.371 64.4692 329.818 64.4692C336.804 64.4692 342.476 66.7124 346.834 71.1987C351.193 75.653 353.372 81.7736 353.372 89.5605V139.262H329.867V94.9441C329.867 91.2589 328.921 88.455 327.031 86.5323C325.14 84.5775 322.688 83.6002 319.676 83.6002C316.44 83.6002 313.892 84.6576 312.033 86.7726C310.207 88.8555 309.294 91.6595 309.294 95.1844V139.262H286.702V94.7038C286.702 91.2749 285.773 88.5671 283.914 86.5803C282.055 84.5936 279.604 83.6002 276.56 83.6002C274.509 83.6002 272.698 84.0968 271.128 85.0902C269.558 86.0516 268.324 87.4295 267.427 89.2241C266.561 91.0186 266.129 93.1336 266.129 95.569V139.262H242.624Z" fill="black"/>
<path d="M367.936 139.262V65.4306H391.441V139.262H367.936ZM379.713 56.8265C376.412 56.8265 373.576 55.737 371.205 53.5579C368.833 51.3468 367.648 48.687 367.648 45.5787C367.648 42.5023 368.833 39.8746 371.205 37.6956C373.576 35.4845 376.412 34.3789 379.713 34.3789C383.045 34.3789 385.881 35.4845 388.221 37.6956C390.592 39.8746 391.778 42.5023 391.778 45.5787C391.778 48.687 390.592 51.3468 388.221 53.5579C385.881 55.737 383.045 56.8265 379.713 56.8265Z" fill="black"/>
<path d="M429.907 97.1552V139.262H406.402V65.4306H428.754V78.9857H429.571C431.205 74.4673 433.993 70.9263 437.935 68.3627C441.876 65.7671 446.571 64.4692 452.018 64.4692C457.21 64.4692 461.712 65.6389 465.525 67.9782C469.371 70.2854 472.351 73.522 474.466 77.6878C476.613 81.8216 477.67 86.6605 477.638 92.2043V139.262H454.133V96.8187C454.165 92.717 453.124 89.5125 451.009 87.2052C448.926 84.898 446.026 83.7444 442.309 83.7444C439.841 83.7444 437.662 84.2891 435.771 85.3786C433.913 86.4361 432.471 87.9583 431.445 89.9451C430.452 91.9319 429.939 94.3353 429.907 97.1552Z" fill="black"/>
<path d="M526.607 168.488C519.589 168.488 513.581 167.51 508.582 165.555C503.583 163.601 499.657 160.925 496.805 157.528C493.953 154.131 492.239 150.286 491.662 145.992L513.917 144.742C514.334 146.248 515.103 147.562 516.225 148.684C517.378 149.805 518.868 150.671 520.695 151.279C522.554 151.888 524.733 152.193 527.232 152.193C531.174 152.193 534.426 151.231 536.99 149.309C539.586 147.418 540.883 144.101 540.883 139.359V126.38H540.066C539.137 128.656 537.727 130.69 535.836 132.485C533.946 134.279 531.59 135.689 528.77 136.715C525.982 137.74 522.778 138.253 519.157 138.253C513.773 138.253 508.838 137.003 504.352 134.504C499.898 131.972 496.325 128.063 493.633 122.775C490.973 117.456 489.643 110.614 489.643 102.25C489.643 93.6303 491.021 86.5323 493.777 80.9564C496.533 75.3485 500.138 71.1987 504.592 68.5069C509.079 65.8151 513.901 64.4692 519.061 64.4692C522.938 64.4692 526.255 65.1422 529.011 66.4881C531.799 67.8019 534.09 69.5003 535.884 71.5832C537.679 73.6662 539.041 75.8292 539.97 78.0724H540.643V65.4306H564.052V139.551C564.052 145.8 562.482 151.071 559.341 155.365C556.201 159.659 551.811 162.912 546.171 165.123C540.531 167.366 534.01 168.488 526.607 168.488ZM527.328 121.141C530.18 121.141 532.616 120.388 534.635 118.882C536.653 117.376 538.208 115.213 539.297 112.393C540.387 109.573 540.931 106.192 540.931 102.25C540.931 98.2448 540.387 94.7999 539.297 91.9159C538.24 88.9998 536.685 86.7566 534.635 85.1864C532.616 83.6162 530.18 82.8311 527.328 82.8311C524.412 82.8311 521.945 83.6322 519.926 85.2344C517.907 86.8367 516.369 89.0959 515.311 92.012C514.286 94.896 513.773 98.3088 513.773 102.25C513.773 106.192 514.302 109.573 515.359 112.393C516.417 115.213 517.939 117.376 519.926 118.882C521.945 120.388 524.412 121.141 527.328 121.141Z" fill="black"/>
<path d="M661.329 70.3335C661.008 66.8085 659.582 64.0687 657.051 62.1139C654.551 60.1271 650.978 59.1337 646.332 59.1337C643.255 59.1337 640.692 59.5343 638.641 60.3354C636.59 61.1366 635.052 62.2421 634.026 63.6521C633.001 65.03 632.472 66.6163 632.44 68.4108C632.376 69.8849 632.664 71.1827 633.305 72.3043C633.978 73.4258 634.94 74.4192 636.189 75.2845C637.471 76.1176 639.009 76.8547 640.804 77.4956C642.598 78.1365 644.617 78.6973 646.86 79.1779L655.32 81.1006C660.191 82.1581 664.485 83.5681 668.202 85.3306C671.952 87.0931 675.092 89.192 677.624 91.6274C680.187 94.0629 682.126 96.8668 683.44 100.039C684.754 103.212 685.427 106.769 685.459 110.71C685.427 116.927 683.856 122.263 680.748 126.717C677.64 131.171 673.169 134.584 667.337 136.955C661.537 139.327 654.535 140.512 646.332 140.512C638.096 140.512 630.918 139.278 624.797 136.811C618.677 134.344 613.918 130.594 610.521 125.563C607.125 120.532 605.378 114.171 605.282 106.48H628.066C628.258 109.653 629.107 112.297 630.614 114.411C632.12 116.526 634.187 118.129 636.814 119.218C639.474 120.308 642.55 120.853 646.043 120.853C649.248 120.853 651.972 120.42 654.215 119.555C656.49 118.69 658.236 117.488 659.454 115.95C660.672 114.411 661.297 112.649 661.329 110.662C661.297 108.804 660.72 107.217 659.598 105.904C658.477 104.558 656.746 103.404 654.407 102.443C652.1 101.449 649.152 100.536 645.563 99.7028L635.276 97.2994C626.752 95.3447 620.039 92.1882 615.136 87.8301C610.233 83.4399 607.798 77.5116 607.83 70.0451C607.798 63.9565 609.432 58.621 612.732 54.0386C616.033 49.4561 620.599 45.8831 626.432 43.3195C632.264 40.7559 638.913 39.4741 646.38 39.4741C654.007 39.4741 660.624 40.7719 666.232 43.3676C671.872 45.9312 676.246 49.5362 679.354 54.1828C682.463 58.8293 684.049 64.2129 684.113 70.3335H661.329Z" fill="black"/>
<path d="M731.94 140.656C724.185 140.656 717.52 139.07 711.944 135.898C706.4 132.693 702.122 128.239 699.11 122.535C696.13 116.799 694.64 110.149 694.64 102.587C694.64 94.9922 696.13 88.3428 699.11 82.6388C702.122 76.9027 706.4 72.4485 711.944 69.276C717.52 66.0715 724.185 64.4692 731.94 64.4692C739.695 64.4692 746.344 66.0715 751.888 69.276C757.464 72.4485 761.742 76.9027 764.722 82.6388C767.734 88.3428 769.241 94.9922 769.241 102.587C769.241 110.149 767.734 116.799 764.722 122.535C761.742 128.239 757.464 132.693 751.888 135.898C746.344 139.07 739.695 140.656 731.94 140.656ZM732.084 122.919C734.904 122.919 737.292 122.054 739.246 120.324C741.201 118.593 742.691 116.19 743.717 113.114C744.774 110.037 745.303 106.48 745.303 102.443C745.303 98.3409 744.774 94.7518 743.717 91.6755C742.691 88.5992 741.201 86.1958 739.246 84.4654C737.292 82.7349 734.904 81.8697 732.084 81.8697C729.168 81.8697 726.701 82.7349 724.682 84.4654C722.695 86.1958 721.173 88.5992 720.115 91.6755C719.09 94.7518 718.577 98.3409 718.577 102.443C718.577 106.48 719.09 110.037 720.115 113.114C721.173 116.19 722.695 118.593 724.682 120.324C726.701 122.054 729.168 122.919 732.084 122.919Z" fill="black"/>
<path d="M815.746 140.656C807.991 140.656 801.326 139.07 795.75 135.898C790.206 132.693 785.928 128.239 782.916 122.535C779.936 116.799 778.446 110.149 778.446 102.587C778.446 94.9922 779.936 88.3428 782.916 82.6388C785.928 76.9027 790.206 72.4485 795.75 69.276C801.326 66.0715 807.991 64.4692 815.746 64.4692C823.501 64.4692 830.15 66.0715 835.694 69.276C841.27 72.4485 845.548 76.9027 848.528 82.6388C851.54 88.3428 853.046 94.9922 853.046 102.587C853.046 110.149 851.54 116.799 848.528 122.535C845.548 128.239 841.27 132.693 835.694 135.898C830.15 139.07 823.501 140.656 815.746 140.656ZM815.89 122.919C818.71 122.919 821.097 122.054 823.052 120.324C825.007 118.593 826.497 116.19 827.523 113.114C828.58 110.037 829.109 106.48 829.109 102.443C829.109 98.3409 828.58 94.7518 827.523 91.6755C826.497 88.5992 825.007 86.1958 823.052 84.4654C821.097 82.7349 818.71 81.8697 815.89 81.8697C812.974 81.8697 810.507 82.7349 808.488 84.4654C806.501 86.1958 804.979 88.5992 803.921 91.6755C802.896 94.7518 802.383 98.3409 802.383 102.443C802.383 106.48 802.896 110.037 803.921 113.114C804.979 116.19 806.501 118.593 808.488 120.324C810.507 122.054 812.974 122.919 815.89 122.919Z" fill="black"/>
<path d="M888.592 97.1552V139.262H865.087V65.4306H887.439V78.9857H888.256C889.89 74.4673 892.678 70.9263 896.62 68.3627C900.561 65.7671 905.256 64.4692 910.704 64.4692C915.895 64.4692 920.397 65.6389 924.211 67.9782C928.056 70.2854 931.036 73.522 933.151 77.6878C935.298 81.8216 936.356 86.6605 936.324 92.2043V139.262H912.818V96.8187C912.851 92.717 911.809 89.5125 909.694 87.2052C907.611 84.898 904.711 83.7444 900.994 83.7444C898.526 83.7444 896.347 84.2891 894.457 85.3786C892.598 86.4361 891.156 87.9583 890.131 89.9451C889.137 91.9319 888.625 94.3353 888.592 97.1552Z" fill="black"/>
<path d="M6.19085 134.321L18.9354 122.148L23.1049 105.025L35.2775 117.769L52.4009 121.939L39.6564 134.111L35.4869 151.235L23.3143 138.49L6.19085 134.321Z" fill="#E7316A"/>
<defs>
<linearGradient id="paint0_linear_1915_21192" x1="593.714" y1="122.975" x2="554.287" y2="166.29" gradientUnits="userSpaceOnUse">
<stop stop-color="#B27900"/>
<stop offset="0.06" stop-color="#C89112"/>
<stop offset="0.14" stop-color="#DFAA24"/>
<stop offset="0.22" stop-color="#EFBC31"/>
<stop offset="0.3" stop-color="#F8C739"/>
<stop offset="0.4" stop-color="#FCCB3C"/>
<stop offset="0.54" stop-color="#F5C337"/>
<stop offset="0.75" stop-color="#E2AF2A"/>
<stop offset="1" stop-color="#C48F16"/>
</linearGradient>
<linearGradient id="paint1_linear_1915_21192" x1="580.739" y1="144.468" x2="548.701" y2="127.925" gradientUnits="userSpaceOnUse">
<stop stop-color="#FFDF82"/>
<stop offset="1" stop-color="#EFB40A"/>
</linearGradient>
<linearGradient id="paint2_linear_1915_21192" x1="588.63" y1="135.115" x2="540.893" y2="137.357" gradientUnits="userSpaceOnUse">
<stop stop-color="#FFE487"/>
<stop offset="1" stop-color="#F8CD4F"/>
</linearGradient>
</defs>
</svg>
