<svg width="73" height="74" viewBox="0 0 73 74" fill="none" xmlns="http://www.w3.org/2000/svg">
<path d="M5.01587 60.0304C5.56627 60.5032 6.16006 60.9303 6.79039 61.3094C7.41615 61.6839 8.07845 62.0128 8.77958 62.2914C9.49898 62.5792 10.2572 62.8144 11.052 62.9948C11.9107 63.1912 12.8128 63.3237 13.7514 63.3922C14.8499 63.4698 16.001 63.4607 17.2023 63.3557C19.043 63.1958 21.0025 62.8144 23.0579 62.2001C23.2292 62.1498 23.4005 62.0973 23.5718 62.0425C26.358 61.1632 29.142 59.9117 31.8597 58.361C33.9586 57.162 36.0163 55.7848 38.0077 54.2592C39.289 53.2772 40.5405 52.2358 41.7578 51.1396C42.7969 50.2032 43.8109 49.228 44.7929 48.2209C45.695 47.2959 46.572 46.3413 47.417 45.3638C48.2346 44.4206 49.0225 43.4546 49.7808 42.4702C50.5367 41.4882 51.263 40.4856 51.955 39.4693C52.6744 38.4119 53.3572 37.3385 53.999 36.2514C54.6955 35.073 55.3464 33.8808 55.9425 32.6773C56.6733 31.2065 57.3265 29.7197 57.8906 28.2307C58.6237 26.2963 59.2106 24.3551 59.6308 22.4253C61.4693 14.0003 59.7953 7.42979 55.6045 3.63867L63.4745 10.7619C67.6653 14.5553 69.3393 21.1235 67.5008 29.5485C67.0806 31.4783 66.4937 33.4195 65.7606 35.3539C65.1965 36.8452 64.5433 38.3297 63.8125 39.8005C63.2164 41.004 62.5655 42.1962 61.869 43.3746C61.2272 44.4617 60.5444 45.5351 59.8227 46.5925C59.1307 47.6088 58.4044 48.6114 57.6485 49.5934C56.8903 50.5778 56.1001 51.5438 55.2847 52.487C54.4374 53.4645 53.5628 54.4191 52.6606 55.3441C51.6786 56.3512 50.6646 57.3264 49.6255 58.2628C48.4082 59.359 47.1567 60.4027 45.8755 61.3824C43.884 62.908 41.824 64.2874 39.7274 65.4842C37.0097 67.0349 34.2258 68.2864 31.4395 69.1657C31.2682 69.2205 31.0969 69.273 30.9257 69.3232C28.868 69.9399 26.9107 70.319 25.07 70.4789C23.8687 70.5839 22.7177 70.5953 21.6191 70.5154C20.6782 70.4492 19.7784 70.3144 18.9197 70.118C18.1249 69.9376 17.3667 69.7024 16.6473 69.4146C15.9462 69.136 15.2839 68.8071 14.6581 68.4326C14.0278 68.0534 13.434 67.6264 12.8836 67.1536C12.7991 67.0805 12.7169 67.0075 12.6346 66.9344L4.76465 59.8112C4.84687 59.8866 4.92909 59.9596 5.01359 60.0304H5.01587Z" fill="url(#paint0_linear_916_7234)"/>
<path d="M0.740641 41.0217C-2.91345 57.7666 7.30887 67.1759 23.5719 62.0419C39.8371 56.9056 55.9837 39.1673 59.6377 22.4224C63.2918 5.67753 53.0695 -3.73175 36.8065 1.40453C20.5413 6.53853 4.39473 24.2769 0.740641 41.0217Z" fill="url(#paint1_linear_916_7234)"/>
<path d="M45.1632 2.96895C49.2878 2.96895 52.581 4.35294 54.6867 6.9679C57.3679 10.2954 58.0941 15.5596 56.7353 21.7875C55.0772 29.3857 50.6032 37.4818 44.1355 44.5845C37.67 51.6848 30.049 56.8782 22.6746 59.2077C20.0162 60.0481 17.5063 60.4729 15.2111 60.4729C11.0888 60.4729 7.79555 59.0889 5.6876 56.474C3.00641 53.1465 2.28016 47.8823 3.63902 41.6544C5.29707 34.0561 9.77104 25.96 16.2388 18.8574C22.7042 11.7548 30.3253 6.56138 37.6974 4.23418C40.3558 3.39374 42.8657 2.96895 45.1609 2.96895H45.1632ZM45.1609 0C42.6145 0 39.8122 0.452194 36.8022 1.40226C20.5415 6.53854 4.39496 24.2769 0.740871 41.0217C-2.23721 54.6675 4.00215 63.4442 15.2134 63.4442C17.7598 63.4442 20.562 62.992 23.5721 62.0419C39.8374 56.9056 55.9839 39.1673 59.638 22.4224C62.6161 8.77667 56.3767 0 45.1632 0L45.1609 0Z" fill="url(#paint2_linear_916_7234)"/>
<path d="M34.1029 56.982L43.4125 48.0902L46.4582 35.582L55.3499 44.8916L67.8581 47.9373L58.5486 56.8291L55.5029 69.3373L46.6111 60.0277L34.1029 56.982Z" fill="#E7316A"/>
<defs>
<linearGradient id="paint0_linear_916_7234" x1="67.6553" y1="14.5578" x2="16.633" y2="70.6109" gradientUnits="userSpaceOnUse">
<stop stop-color="#B27900"/>
<stop offset="0.06" stop-color="#C89112"/>
<stop offset="0.14" stop-color="#DFAA24"/>
<stop offset="0.22" stop-color="#EFBC31"/>
<stop offset="0.3" stop-color="#F8C739"/>
<stop offset="0.4" stop-color="#FCCB3C"/>
<stop offset="0.54" stop-color="#F5C337"/>
<stop offset="0.75" stop-color="#E2AF2A"/>
<stop offset="1" stop-color="#C48F16"/>
</linearGradient>
<linearGradient id="paint1_linear_916_7234" x1="50.8654" y1="42.3769" x2="9.40544" y2="20.9687" gradientUnits="userSpaceOnUse">
<stop stop-color="#FFDF82"/>
<stop offset="1" stop-color="#EFB40A"/>
</linearGradient>
<linearGradient id="paint2_linear_916_7234" x1="61.0768" y1="30.2719" x2="-0.697928" y2="33.1723" gradientUnits="userSpaceOnUse">
<stop stop-color="#FFE487"/>
<stop offset="1" stop-color="#F8CD4F"/>
</linearGradient>
</defs>
</svg>
