<svg width="54" height="54" viewBox="0 0 54 54" fill="none" xmlns="http://www.w3.org/2000/svg">
<path d="M3.57609 42.8016C3.96853 43.1387 4.3919 43.4432 4.84133 43.7135C5.2875 43.9805 5.75972 44.215 6.25962 44.4137C6.77255 44.6188 7.31317 44.7866 7.87984 44.9152C8.4921 45.0552 9.1353 45.1497 9.80455 45.1985C10.5878 45.2539 11.4085 45.2474 12.265 45.1725C13.5775 45.0585 14.9746 44.7866 16.4401 44.3485C16.5622 44.3127 16.6844 44.2753 16.8065 44.2362C18.7931 43.6093 20.778 42.7169 22.7158 41.6113C24.2122 40.7564 25.6794 39.7745 27.0993 38.6867C28.0128 37.9865 28.9052 37.244 29.7731 36.4624C30.514 35.7948 31.237 35.0995 31.9372 34.3814C32.5804 33.7219 33.2057 33.0412 33.8081 32.3443C34.3911 31.6718 34.9529 30.983 35.4935 30.2812C36.0325 29.581 36.5503 28.8661 37.0437 28.1415C37.5566 27.3876 38.0435 26.6223 38.5011 25.8472C38.9977 25.0069 39.4618 24.1569 39.8868 23.2988C40.4079 22.2501 40.8736 21.1901 41.2758 20.1284C41.7985 18.7492 42.217 17.3651 42.5166 15.9891C43.8274 9.98209 42.6338 5.29731 39.6458 2.59424L45.2571 7.67308C48.2452 10.3778 49.4387 15.0609 48.1279 21.0679C47.8283 22.4439 47.4098 23.828 46.8871 25.2072C46.4849 26.2705 46.0192 27.329 45.4981 28.3776C45.0731 29.2358 44.609 30.0858 44.1124 30.926C43.6548 31.7011 43.1679 32.4664 42.6534 33.2204C42.16 33.945 41.6422 34.6598 41.1032 35.36C40.5626 36.0618 39.9992 36.7506 39.4178 37.4231C38.8137 38.1201 38.1901 38.8007 37.5469 39.4602C36.8467 40.1783 36.1237 40.8736 35.3828 41.5413C34.5149 42.3229 33.6225 43.067 32.709 43.7656C31.2891 44.8533 29.8203 45.8369 28.3255 46.6901C26.3877 47.7958 24.4028 48.6881 22.4162 49.315C22.294 49.3541 22.1719 49.3916 22.0498 49.4274C20.5826 49.867 19.1871 50.1373 17.8747 50.2513C17.0182 50.3262 16.1975 50.3344 15.4142 50.2774C14.7434 50.2302 14.1018 50.1341 13.4895 49.994C12.9229 49.8654 12.3822 49.6977 11.8693 49.4925C11.3694 49.2939 10.8972 49.0594 10.451 48.7923C10.0016 48.522 9.57821 48.2175 9.18578 47.8804C9.12553 47.8283 9.06691 47.7762 9.00829 47.7241L3.39697 42.6453C3.45559 42.699 3.51422 42.7511 3.57447 42.8016H3.57609Z" fill="url(#paint0_linear_942_7158)"/>
<path d="M0.527833 29.2488C-2.07754 41.1879 5.21099 47.8967 16.8065 44.2362C28.4037 40.574 39.9161 27.9265 42.5215 15.9874C45.1269 4.04833 37.8384 -2.6605 26.2428 1.00168C14.6457 4.66222 3.1332 17.3097 0.527833 29.2488Z" fill="url(#paint1_linear_942_7158)"/>
<path d="M32.2012 2.11686C35.142 2.11686 37.4901 3.10365 38.9915 4.96811C40.9032 7.34063 41.421 11.094 40.4521 15.5345C39.2699 20.9521 36.08 26.7246 31.4685 31.7888C26.8586 36.8513 21.4248 40.5542 16.1668 42.2151C14.2714 42.8144 12.4818 43.1172 10.8453 43.1172C7.90615 43.1172 5.55806 42.1305 4.05509 40.266C2.1434 37.8935 1.62558 34.1401 2.59445 29.6996C3.77664 24.282 6.96659 18.5095 11.5781 13.4453C16.188 8.38115 21.6218 4.67827 26.8781 3.01897C28.7735 2.41974 30.5631 2.11686 32.1996 2.11686H32.2012ZM32.1996 0C30.384 0 28.386 0.322414 26.2398 0.999811C14.6459 4.66198 3.13344 17.3094 0.528067 29.2485C-1.59531 38.978 2.85336 45.2357 10.847 45.2357C12.6626 45.2357 14.6606 44.9133 16.8067 44.2359C28.4039 40.5737 39.9164 27.9263 42.5217 15.9872C44.6451 6.25777 40.1964 0 32.2012 0L32.1996 0Z" fill="url(#paint2_linear_942_7158)"/>
<path d="M45.336 46.08C49.71 41.706 49.71 34.6143 45.336 30.2403C40.962 25.8662 33.8703 25.8663 29.4963 30.2403C25.1222 34.6143 25.1222 41.706 29.4963 46.08C33.8703 50.454 40.9619 50.454 45.336 46.08Z" fill="#E7316A"/>
<defs>
<linearGradient id="paint0_linear_942_7158" x1="48.2381" y1="10.3796" x2="11.8591" y2="50.3455" gradientUnits="userSpaceOnUse">
<stop stop-color="#B27900"/>
<stop offset="0.06" stop-color="#C89112"/>
<stop offset="0.14" stop-color="#DFAA24"/>
<stop offset="0.22" stop-color="#EFBC31"/>
<stop offset="0.3" stop-color="#F8C739"/>
<stop offset="0.4" stop-color="#FCCB3C"/>
<stop offset="0.54" stop-color="#F5C337"/>
<stop offset="0.75" stop-color="#E2AF2A"/>
<stop offset="1" stop-color="#C48F16"/>
</linearGradient>
<linearGradient id="paint1_linear_942_7158" x1="36.2668" y1="30.215" x2="6.70584" y2="14.9509" gradientUnits="userSpaceOnUse">
<stop stop-color="#FFDF82"/>
<stop offset="1" stop-color="#EFB40A"/>
</linearGradient>
<linearGradient id="paint2_linear_942_7158" x1="43.5476" y1="21.5839" x2="-0.497797" y2="23.6519" gradientUnits="userSpaceOnUse">
<stop stop-color="#FFE487"/>
<stop offset="1" stop-color="#F8CD4F"/>
</linearGradient>
</defs>
</svg>
