<svg width="109" height="32" viewBox="0 0 109 32" fill="none" xmlns="http://www.w3.org/2000/svg">
<path d="M16 32C24.8366 32 32 24.8366 32 16C32 7.16344 24.8366 0 16 0C7.16344 0 0 7.16344 0 16C0 24.8366 7.16344 32 16 32Z" fill="url(#paint0_linear_844_8184)"/>
<path d="M16.1682 9.30413C18.4648 9.25199 19.8341 10.4809 20.084 11.2964L22.8913 10.507C22.4204 9.44936 20.8121 6.70482 16.266 6.5C7.65203 6.5 7 14.7969 7 15.6385C7 24.3861 13.3247 25.358 15.7806 25.4735C17.9722 25.5815 21.3518 25.3469 23 25.0043V14.4283H14.1143V17.3516H19.6638C19.6928 17.3516 19.7145 17.3739 19.7145 17.4037V22.5278C19.7145 22.5576 19.6928 22.5874 19.6638 22.5986C19.6638 22.5986 18.2873 22.8779 16.3059 22.8109C15.5271 22.7885 10.6513 22.5874 10.6513 16.0184C10.6513 11.7954 12.698 9.34137 16.161 9.30413" fill="#FCFCFD"/>
<path d="M53.8601 12.6193C53.718 12.1591 53.522 11.7472 53.272 11.3835C53.0277 11.0142 52.7322 10.6989 52.3857 10.4375C52.0447 10.1761 51.6527 9.98011 51.2095 9.84943C50.7663 9.71307 50.2834 9.64489 49.7607 9.64489C48.8232 9.64489 47.9879 9.88068 47.255 10.3523C46.522 10.8239 45.9453 11.517 45.5249 12.4318C45.1101 13.3409 44.9027 14.4489 44.9027 15.7557C44.9027 17.0739 45.1101 18.1903 45.5249 19.1051C45.9396 20.0199 46.5163 20.7159 47.255 21.1932C47.9936 21.6648 48.8516 21.9006 49.8288 21.9006C50.7152 21.9006 51.4822 21.7301 52.13 21.3892C52.7834 21.0483 53.2862 20.5653 53.6385 19.9403C53.9908 19.3097 54.1669 18.571 54.1669 17.7244L54.8828 17.8352H50.1442V15.3636H57.2266V17.4602C57.2266 18.9545 56.9084 20.2472 56.272 21.3381C55.6357 22.429 54.7607 23.2699 53.647 23.8608C52.5334 24.446 51.255 24.7386 49.8118 24.7386C48.2038 24.7386 46.7919 24.3778 45.576 23.6562C44.3658 22.929 43.4197 21.8977 42.7379 20.5625C42.0618 19.2216 41.7237 17.6307 41.7237 15.7898C41.7237 14.3807 41.9226 13.1222 42.3203 12.0142C42.7237 10.9062 43.2862 9.96591 44.0078 9.19318C44.7294 8.41477 45.576 7.82386 46.5476 7.42045C47.5192 7.01136 48.576 6.80682 49.718 6.80682C50.6839 6.80682 51.5845 6.94886 52.4197 7.23295C53.255 7.51136 53.9964 7.90909 54.6442 8.42614C55.2976 8.94318 55.8345 9.55682 56.255 10.267C56.6754 10.9773 56.951 11.7614 57.0817 12.6193H53.8601ZM61.9865 24.5H58.6115L64.7564 7.04545H68.6598L74.8132 24.5H71.4382L66.7763 10.625H66.6399L61.9865 24.5ZM62.0973 17.6562H71.3018V20.196H62.0973V17.6562ZM86.3168 11.8438C86.2372 11.0994 85.902 10.5199 85.3111 10.1051C84.7259 9.69034 83.9645 9.48295 83.027 9.48295C82.3679 9.48295 81.8026 9.58239 81.331 9.78125C80.8594 9.98011 80.4986 10.25 80.2486 10.5909C79.9986 10.9318 79.8707 11.321 79.8651 11.7585C79.8651 12.1222 79.9474 12.4375 80.1122 12.7045C80.2827 12.9716 80.5128 13.1989 80.8026 13.3864C81.0923 13.5682 81.4134 13.7216 81.7656 13.8466C82.1179 13.9716 82.473 14.0767 82.831 14.1619L84.4673 14.571C85.1264 14.7244 85.7599 14.9318 86.3679 15.1932C86.9815 15.4545 87.5298 15.7841 88.0128 16.1818C88.5014 16.5795 88.8878 17.0597 89.1719 17.6222C89.456 18.1847 89.598 18.8437 89.598 19.5994C89.598 20.6222 89.3366 21.5227 88.8139 22.3011C88.2912 23.0739 87.5355 23.679 86.5469 24.1165C85.5639 24.5483 84.3736 24.7642 82.9759 24.7642C81.6179 24.7642 80.4389 24.554 79.4389 24.1335C78.4446 23.7131 77.6662 23.0994 77.1037 22.2926C76.5469 21.4858 76.2457 20.5028 76.2003 19.3438H79.3111C79.3565 19.9517 79.544 20.4574 79.8736 20.8608C80.2031 21.2642 80.6321 21.5653 81.1605 21.7642C81.6946 21.9631 82.2912 22.0625 82.9503 22.0625C83.6378 22.0625 84.2401 21.9602 84.7571 21.7557C85.2798 21.5455 85.6889 21.2557 85.9844 20.8864C86.2798 20.5114 86.4304 20.0739 86.4361 19.5739C86.4304 19.1193 86.2969 18.7443 86.0355 18.4489C85.7741 18.1477 85.4077 17.8977 84.9361 17.6989C84.4702 17.4943 83.9247 17.3125 83.2997 17.1534L81.3139 16.642C79.8764 16.2727 78.7401 15.7131 77.9048 14.9631C77.0753 14.2074 76.6605 13.2045 76.6605 11.9545C76.6605 10.9261 76.9389 10.0256 77.4957 9.25284C78.0582 8.48011 78.8224 7.88068 79.7884 7.45454C80.7543 7.02273 81.848 6.80682 83.0696 6.80682C84.3082 6.80682 85.3935 7.02273 86.3253 7.45454C87.2628 7.88068 87.9986 8.47443 88.5327 9.23579C89.0668 9.99148 89.3423 10.8608 89.3594 11.8438H86.3168ZM92.4169 24.5V7.04545H95.5788V14.4347H103.667V7.04545H106.837V24.5H103.667V17.0852H95.5788V24.5H92.4169Z" fill="#1D2939"/>
<defs>
<linearGradient id="paint0_linear_844_8184" x1="3.5" y1="5" x2="26" y2="29.5" gradientUnits="userSpaceOnUse">
<stop stop-color="#E72E6B"/>
<stop offset="1" stop-color="#F3973D"/>
</linearGradient>
</defs>
</svg>
