<svg width="32" height="32" viewBox="0 0 32 32" fill="none" xmlns="http://www.w3.org/2000/svg">
<path d="M16 32C24.8366 32 32 24.8366 32 16C32 7.16344 24.8366 0 16 0C7.16344 0 0 7.16344 0 16C0 24.8366 7.16344 32 16 32Z" fill="url(#paint0_linear_4510_17827)"/>
<path d="M16.1682 9.30413C18.4648 9.25199 19.8341 10.4809 20.084 11.2964L22.8913 10.507C22.4204 9.44936 20.8121 6.70482 16.266 6.5C7.65203 6.5 7 14.7969 7 15.6385C7 24.3861 13.3247 25.358 15.7806 25.4735C17.9722 25.5815 21.3518 25.3469 23 25.0043V14.4283H14.1143V17.3516H19.6638C19.6928 17.3516 19.7145 17.3739 19.7145 17.4037V22.5278C19.7145 22.5576 19.6928 22.5874 19.6638 22.5986C19.6638 22.5986 18.2873 22.8779 16.3059 22.8109C15.5271 22.7885 10.6513 22.5874 10.6513 16.0184C10.6513 11.7954 12.698 9.34137 16.161 9.30413" fill="#FCFCFD"/>
<defs>
<linearGradient id="paint0_linear_4510_17827" x1="3.5" y1="5" x2="26" y2="29.5" gradientUnits="userSpaceOnUse">
<stop stop-color="#E72E49"/>
<stop offset="1" stop-color="#F3973D"/>
</linearGradient>
</defs>
</svg>
